<?xml version="1.0" encoding="UTF-8"?><svg xmlns="http://www.w3.org/2000/svg" xmlns:xlink="http://www.w3.org/1999/xlink" viewBox="0 0 674.4 677.84"><defs><style>.f{fill:#e5e288;}.g{fill:#014209;}.h{fill:url(#b);}.i{fill:#002d05;}.j{fill:#984ea0;}.k{fill:#00630e;}.l{fill:#4ac3ff;}.m{fill:#ccc;}.n{fill:#001902;}</style><radialGradient id="b" cx="334.2" cy="334.42" fx="334.2" fy="334.42" r="250" gradientTransform="matrix(1, 0, 0, 1, 0, 0)" gradientUnits="userSpaceOnUse"><stop offset="0" stop-color="#000"/><stop offset="1" stop-color="#0e1128" stop-opacity="0"/></radialGradient></defs><g id="a"><circle class="h" cx="334.2" cy="334.42" r="250"/><g><path class="f" d="M172.96,293.94h5.61l4.31,23.58,.75,5.3,.92-5.3,5.91-23.58h4.07l5.88,23.58,.99,5.81,.92-5.81,4.1-23.58h5.61l-7.86,36.98h-4.99l-5.78-22.66-.96-5.74-.92,5.74-5.71,22.66h-4.99l-7.86-36.98Z"/><path class="f" d="M230.2,330.27c-2.18-.89-4.04-2.13-5.59-3.73-1.55-1.59-2.76-3.49-3.62-5.67-.87-2.19-1.3-4.57-1.3-7.14v-1.44c0-2.98,.48-5.66,1.44-8.01,.96-2.36,2.23-4.36,3.83-6,1.57-1.62,3.37-2.86,5.38-3.73,2.02-.87,4.08-1.3,6.2-1.3,2.67,0,5,.46,6.99,1.38,1.99,.92,3.65,2.19,4.97,3.81,1.32,1.64,2.31,3.57,2.96,5.78,.65,2.21,.97,4.6,.97,7.18v2.84h-26.42v.24c.16,1.8,.52,3.38,1.08,4.75,.56,1.37,1.33,2.58,2.31,3.62,1,1.12,2.21,1.99,3.62,2.63,1.41,.64,2.97,.96,4.68,.96,2.26,0,4.26-.46,6.02-1.37,1.75-.91,3.21-2.12,4.38-3.62l3.86,3.01c-1.23,1.87-3.07,3.53-5.52,4.97-2.45,1.45-5.47,2.17-9.07,2.17-2.6,0-4.98-.44-7.16-1.33Zm2.72-31.12c-1.14,.47-2.17,1.14-3.08,2.03-.91,.91-1.68,2.02-2.31,3.33-.63,1.31-1.07,2.82-1.32,4.53h19.89v-.31c0-1.14-.22-2.36-.65-3.67-.43-1.31-1.04-2.44-1.81-3.4-.77-.96-1.75-1.73-2.92-2.32-1.17-.59-2.57-.89-4.19-.89-1.28,0-2.48,.23-3.62,.7Z"/><path class="f" d="M295.55,317.5c-.24,1.49-.59,2.89-1.04,4.19-.62,1.71-1.42,3.24-2.41,4.6s-2.18,2.48-3.57,3.37c-1,.62-2.1,1.09-3.3,1.44s-2.49,.51-3.88,.51c-1.6,0-3.05-.19-4.36-.58-1.31-.39-2.49-.95-3.54-1.67-.5-.36-.98-.76-1.44-1.2-.46-.43-.89-.91-1.3-1.44l-.31,4.2h-5.81v-52.5h6.32v19.48c.52-.66,1.1-1.26,1.74-1.79,.64-.53,1.32-1,2.05-1.38,.91-.48,1.91-.84,3.01-1.09,1.09-.25,2.28-.38,3.55-.38,1.59,0,3.06,.22,4.41,.65,1.34,.43,2.56,1.04,3.66,1.81,.98,.73,1.86,1.61,2.63,2.65,.77,1.04,1.46,2.19,2.05,3.47,.62,1.44,1.08,3.02,1.4,4.77,.32,1.74,.48,3.58,.48,5.52v.72c0,1.62-.12,3.17-.36,4.67Zm-6.19-8.78c-.15-1.11-.37-2.15-.67-3.13-.41-1.21-.95-2.31-1.61-3.32-.66-1-1.47-1.79-2.43-2.36-.66-.41-1.4-.73-2.22-.96-.82-.23-1.73-.34-2.73-.34-1.09,0-2.1,.14-3.01,.43-.91,.29-1.72,.68-2.43,1.18-.73,.52-1.37,1.13-1.93,1.83-.56,.7-1.03,1.45-1.42,2.27v16.17c.41,.82,.89,1.58,1.45,2.27,.56,.7,1.2,1.31,1.93,1.83,.73,.52,1.55,.93,2.46,1.21,.91,.29,1.91,.43,3.01,.43s2-.13,2.87-.39c.87-.26,1.64-.64,2.32-1.14,.91-.64,1.67-1.45,2.29-2.43,.62-.98,1.1-2.07,1.47-3.28,.3-.91,.51-1.89,.65-2.94,.14-1.05,.21-2.12,.21-3.21v-.72c0-1.16-.07-2.29-.22-3.4Z"/><path class="m" d="M313.6,301.53c.51-2.87,1.2-5.54,2.07-8,.87-2.44,1.86-4.67,2.99-6.7,1.13-2.03,2.32-3.83,3.57-5.4,1.23-1.57,2.47-2.92,3.73-4.03,1.25-1.12,2.45-1.99,3.59-2.63l1.33,4.17c-.73,.55-1.46,1.21-2.2,1.98-.74,.78-1.46,1.64-2.17,2.6-1.05,1.48-2.05,3.22-3.01,5.21-.96,2-1.75,4.18-2.39,6.55-.62,2.14-1.09,4.5-1.44,7.08-.34,2.58-.51,5.34-.51,8.31v.48c0,2.85,.16,5.51,.48,8,.32,2.48,.75,4.77,1.3,6.87,.59,2.12,1.28,4.08,2.05,5.9,.77,1.81,1.58,3.43,2.43,4.87,.87,1.37,1.76,2.58,2.68,3.64,.92,1.06,1.85,1.97,2.79,2.72l-1.33,3.86c-1.14-.64-2.34-1.51-3.61-2.62s-2.51-2.46-3.74-4.05c-1.25-1.57-2.44-3.37-3.57-5.38-1.13-2.02-2.11-4.25-2.96-6.72-.87-2.44-1.56-5.09-2.07-7.96s-.77-5.94-.77-9.19v-.34c0-3.26,.26-6.32,.77-9.19Z"/><path class="l" d="M348.43,304.52c.7-2.31,1.69-4.3,2.99-5.96,1.28-1.66,2.83-2.96,4.65-3.9,1.82-.93,3.86-1.4,6.12-1.4s4.14,.37,5.79,1.11,3.08,1.82,4.29,3.23v-19.17h6.32v52.5h-5.81l-.27-3.9c-1.23,1.5-2.7,2.64-4.41,3.42s-3.7,1.16-5.98,1.16-4.26-.48-6.07-1.44-3.36-2.28-4.63-3.96c-1.28-1.69-2.27-3.67-2.97-5.96-.71-2.29-1.06-4.76-1.06-7.4v-.72c0-2.76,.35-5.29,1.04-7.61Zm5.86,13.45c.39,1.62,.99,3.04,1.81,4.27,.8,1.23,1.82,2.21,3.08,2.92,1.25,.72,2.76,1.08,4.51,1.08,2.12,0,3.87-.48,5.26-1.44,1.39-.96,2.49-2.24,3.31-3.86v-17.16c-.82-1.5-1.93-2.74-3.31-3.71-1.39-.97-3.12-1.45-5.2-1.45-1.78,0-3.3,.37-4.56,1.09-1.26,.73-2.3,1.71-3.09,2.94-.82,1.25-1.42,2.7-1.81,4.32-.39,1.63-.58,3.34-.58,5.14v.72c0,1.8,.19,3.51,.58,5.13Z"/><path class="l" d="M400.54,330.27c-2.18-.89-4.04-2.13-5.59-3.73-1.55-1.59-2.76-3.49-3.62-5.67-.87-2.19-1.3-4.57-1.3-7.14v-1.44c0-2.98,.48-5.66,1.44-8.01,.96-2.36,2.23-4.36,3.83-6,1.57-1.62,3.37-2.86,5.38-3.73,2.02-.87,4.08-1.3,6.2-1.3,2.67,0,5,.46,6.99,1.38,1.99,.92,3.65,2.19,4.97,3.81,1.32,1.64,2.31,3.57,2.96,5.78,.65,2.21,.97,4.6,.97,7.18v2.84h-26.42v.24c.16,1.8,.52,3.38,1.08,4.75s1.33,2.58,2.31,3.62c1,1.12,2.21,1.99,3.62,2.63,1.41,.64,2.97,.96,4.68,.96,2.26,0,4.26-.46,6.02-1.37,1.75-.91,3.21-2.12,4.38-3.62l3.86,3.01c-1.23,1.87-3.07,3.53-5.52,4.97s-5.47,2.17-9.07,2.17c-2.6,0-4.99-.44-7.16-1.33Zm2.72-31.12c-1.14,.47-2.17,1.14-3.08,2.03-.91,.91-1.68,2.02-2.31,3.33-.63,1.31-1.07,2.82-1.32,4.53h19.89v-.31c0-1.14-.22-2.36-.65-3.67-.43-1.31-1.04-2.44-1.81-3.4-.78-.96-1.75-1.73-2.92-2.32-1.17-.59-2.57-.89-4.19-.89-1.28,0-2.48,.23-3.62,.7Z"/><path class="l" d="M430.42,293.94h6.49l10.6,27.89,.58,2.29,.62-2.29,10.36-27.89h6.46l-15.07,36.98h-4.82l-15.21-36.98Z"/><path class="m" d="M497.33,320.26c-.51,2.87-1.2,5.53-2.07,7.96-.87,2.46-1.86,4.7-2.99,6.72-1.13,2.02-2.31,3.81-3.54,5.38-1.25,1.59-2.51,2.94-3.78,4.05-1.27,1.11-2.47,1.98-3.61,2.62l-1.33-3.86c.96-.71,1.92-1.62,2.91-2.73,.98-1.12,1.91-2.4,2.8-3.86,.84-1.48,1.66-3.15,2.44-5.01,.79-1.86,1.43-3.89,1.93-6.1,.52-2.05,.93-4.27,1.21-6.65,.28-2.38,.43-4.93,.43-7.64v-.48c0-3.08-.19-5.87-.56-8.37-.38-2.51-.79-4.64-1.25-6.39-.66-2.51-1.46-4.76-2.39-6.75-.93-1.99-1.89-3.73-2.87-5.21-.75-1.16-1.53-2.18-2.32-3.06-.8-.88-1.57-1.62-2.32-2.24l1.33-3.86c1.14,.64,2.35,1.52,3.62,2.63,1.28,1.12,2.53,2.46,3.76,4.03,1.28,1.62,2.47,3.42,3.59,5.4,1.12,1.98,2.1,4.22,2.94,6.7,.82,2.39,1.5,4.99,2.03,7.78,.54,2.79,.8,5.93,.8,9.42v.34c0,3.26-.26,6.32-.77,9.19Z"/></g><g/><g><path class="m" d="M241.02,428.7c-1.53-.9-2.79-2.09-3.8-3.58-.97-1.42-1.7-3-2.19-4.75-.49-1.75-.74-3.49-.74-5.2v-5.45c0-3.09-.74-5.34-2.21-6.74-1.47-1.4-3.72-2.11-6.75-2.13v-4.67c3.03,0,5.28-.69,6.75-2.08,1.47-1.39,2.21-3.64,2.21-6.75v-5.48c0-1.74,.23-3.52,.69-5.33,.46-1.81,1.2-3.44,2.21-4.88,.95-1.38,2.18-2.5,3.71-3.37,1.53-.87,3.37-1.34,5.54-1.4l.68,3.71c-1.55,.04-2.78,.41-3.69,1.1-.91,.69-1.6,1.56-2.05,2.61-.47,1.07-.77,2.28-.9,3.61s-.19,2.65-.19,3.96v5.48c0,2.58-.6,4.84-1.79,6.78-1.19,1.95-3.03,3.42-5.53,4.43,2.49,.99,4.33,2.46,5.51,4.4,1.18,1.95,1.78,4.2,1.8,6.75v5.45c0,1.33,.11,2.66,.32,3.98,.21,1.32,.59,2.51,1.13,3.56,.52,1.07,1.21,1.96,2.08,2.64s1.97,1.05,3.3,1.1l-.68,3.71c-2.08-.06-3.89-.55-5.41-1.45Z"/><path class="j" d="M277.14,413.65c1.02-.34,1.93-.83,2.72-1.45,.79-.6,1.43-1.32,1.92-2.14,.48-.83,.74-1.72,.76-2.69h5.64c-.02,1.55-.42,3.02-1.21,4.43-.78,1.41-1.83,2.64-3.14,3.69-1.31,1.07-2.81,1.93-4.51,2.56-1.7,.63-3.47,.95-5.32,.95-2.64,0-4.95-.47-6.93-1.42-1.98-.95-3.62-2.22-4.93-3.83-1.33-1.59-2.33-3.43-3-5.53-.67-2.1-1-4.3-1-6.62v-1.35c0-2.3,.33-4.5,1-6.61,.67-2.11,1.66-3.96,3-5.58,1.31-1.59,2.95-2.86,4.93-3.8,1.98-.95,4.29-1.42,6.93-1.42,2.06,0,3.96,.33,5.69,.98,1.73,.66,3.23,1.54,4.5,2.66,1.25,1.14,2.22,2.48,2.93,4.03s1.06,3.2,1.06,4.96h-5.64c-.02-1.05-.25-2.05-.69-2.98-.44-.94-1.04-1.76-1.79-2.47-.75-.71-1.65-1.27-2.69-1.68-1.04-.41-2.16-.61-3.37-.61-1.85,0-3.4,.37-4.66,1.11-1.26,.74-2.27,1.7-3.05,2.88-.77,1.2-1.33,2.55-1.66,4.03-.33,1.48-.5,2.98-.5,4.48v1.35c0,1.53,.17,3.04,.5,4.53,.33,1.49,.89,2.83,1.66,4.01,.75,1.2,1.76,2.17,3.01,2.92,1.26,.74,2.82,1.11,4.69,1.11,1.07,0,2.12-.17,3.14-.52Z"/><path class="j" d="M316.52,368.85v44.34h11.38v5.16h-29.2v-5.16h11.86v-39.16h-11.86v-5.19h17.82Z"/><path class="j" d="M360.91,413.55c-1.16,1.72-2.61,3.06-4.35,4.01-1.74,.96-3.75,1.43-6.03,1.43-1.83,0-3.48-.29-4.96-.85-1.48-.57-2.75-1.46-3.8-2.66s-1.86-2.73-2.43-4.59c-.57-1.86-.85-4.09-.85-6.69v-20.72h5.96v20.79c0,1.89,.15,3.46,.45,4.71s.75,2.23,1.35,2.96c.6,.75,1.34,1.28,2.21,1.58,.87,.3,1.87,.45,3.01,.45,1.33,0,2.52-.16,3.58-.47s1.97-.75,2.74-1.31c.64-.45,1.21-.99,1.69-1.63,.48-.63,.89-1.33,1.21-2.08v-25.01h5.99v34.87h-5.41l-.35-4.8Z"/><path class="j" d="M410.87,405.71c-.22,1.41-.55,2.72-.98,3.95-.58,1.61-1.34,3.06-2.27,4.33-.94,1.28-2.06,2.34-3.37,3.17-.95,.58-1.98,1.03-3.11,1.35-1.13,.32-2.35,.48-3.66,.48-1.5,0-2.87-.18-4.11-.55-1.24-.37-2.35-.89-3.34-1.58-.47-.34-.92-.72-1.35-1.13s-.84-.86-1.22-1.35l-.29,3.96h-5.48v-49.5h5.96v18.37c.49-.62,1.04-1.19,1.64-1.69s1.25-.94,1.93-1.31c.86-.45,1.8-.79,2.84-1.03s2.15-.35,3.35-.35c1.5,0,2.89,.2,4.16,.61s2.42,.98,3.45,1.71c.92,.69,1.75,1.52,2.48,2.5s1.38,2.07,1.93,3.27c.58,1.35,1.02,2.85,1.32,4.5,.3,1.64,.45,3.38,.45,5.21v.68c0,1.53-.11,2.99-.34,4.4Zm-5.83-8.28c-.14-1.04-.35-2.02-.63-2.95-.39-1.14-.89-2.18-1.51-3.13s-1.39-1.69-2.29-2.22c-.62-.39-1.32-.69-2.09-.9s-1.63-.32-2.58-.32c-1.03,0-1.98,.13-2.84,.4s-1.62,.64-2.29,1.11c-.69,.49-1.29,1.07-1.82,1.72-.53,.66-.97,1.37-1.34,2.14v15.24c.39,.77,.84,1.49,1.37,2.14s1.13,1.23,1.82,1.72,1.46,.88,2.32,1.14c.86,.27,1.8,.4,2.84,.4s1.89-.12,2.71-.37,1.55-.61,2.19-1.08c.86-.6,1.58-1.36,2.16-2.29s1.04-1.96,1.39-3.09c.28-.86,.48-1.78,.61-2.77s.19-2,.19-3.03v-.68c0-1.1-.07-2.16-.21-3.21Z"/><path class="m" d="M428.36,425.35c.88-.69,1.59-1.57,2.13-2.64,.52-1.05,.89-2.24,1.11-3.56,.22-1.32,.34-2.65,.34-3.98v-5.45c0-1.7,.25-3.27,.76-4.71,.5-1.44,1.28-2.69,2.34-3.74,.56-.56,1.19-1.06,1.88-1.51s1.47-.85,2.3-1.19c-.86-.34-1.65-.75-2.37-1.22s-1.35-1-1.88-1.58c-1.03-1.07-1.79-2.33-2.29-3.75-.49-1.43-.74-2.98-.74-4.66v-5.48c0-1.31-.07-2.63-.21-3.96-.14-1.33-.44-2.54-.89-3.61-.47-1.05-1.16-1.92-2.06-2.61s-2.13-1.05-3.67-1.1l.64-3.71c2.08,.06,3.87,.5,5.37,1.32s2.72,1.88,3.69,3.19c1.1,1.48,1.89,3.15,2.37,5,.48,1.85,.73,3.67,.73,5.48v5.48c0,1.29,.12,2.42,.37,3.4s.62,1.82,1.11,2.53c.71,1.01,1.69,1.75,2.95,2.21,1.26,.46,2.77,.69,4.53,.69v4.67c-1.55,.02-2.9,.21-4.04,.56-1.15,.36-2.09,.91-2.82,1.66-.71,.73-1.24,1.64-1.58,2.74s-.52,2.4-.52,3.9v5.45c0,1.72-.24,3.45-.71,5.2s-1.2,3.35-2.19,4.79c-1.01,1.44-2.28,2.62-3.8,3.54s-3.34,1.41-5.45,1.45l-.68-3.71c1.31-.04,2.41-.41,3.29-1.1Z"/></g><g id="c"/><g id="d"/></g><g id="e"><g><path class="k" d="M335.16,120.82l-.64-1.75-.62,1.75-4.7,14.09h-6.97l9.44-22.75h5.78l9.44,22.75h-6.94l-4.78-14.09Z"/><path class="k" d="M297.91,124.24l-.94-1.61-.3,1.83-2.19,14.69-6.86,1.21,5.34-24.05,5.7-1,13.24,20.77-6.84,1.21-7.16-13.04Z"/><path class="k" d="M261.83,134.07l-1.2-1.42,.02,1.85,.4,14.85-6.55,2.38,1.08-24.61,5.44-1.98,16.65,18.15-6.52,2.37-9.31-11.6Z"/><path class="k" d="M227.99,150.02l-1.43-1.19,.34,1.82,2.97,14.55-6.03,3.48-3.21-24.42,5.01-2.89,19.55,14.99-6.01,3.47-11.19-9.81Z"/><path class="k" d="M197.44,171.6l-1.62-.93,.65,1.74,5.45,13.82-5.34,4.48-7.4-23.5,4.43-3.72,21.85,11.37-5.32,4.46-12.72-7.72Z"/><path class="k" d="M171.11,198.16l-1.75-.63,.94,1.6,7.77,12.66-4.48,5.34-11.37-21.85,3.72-4.43,23.5,7.4-4.46,5.32-13.87-5.39Z"/><path class="k" d="M149.78,228.89l-1.84-.32,1.21,1.41,9.85,11.12-3.48,6.03-14.99-19.55,2.89-5.01,24.42,3.21-3.47,6.01-14.59-2.9Z"/><path class="k" d="M134.12,262.86h-1.86l1.43,1.18,11.63,9.24-2.38,6.55-18.15-16.65,1.98-5.44,24.61-1.08-2.37,6.52-14.88-.33Z"/><path class="k" d="M124.59,299.03l-1.83,.33,1.61,.91,13.06,7.08-1.21,6.86-20.77-13.24,1-5.7,24.05-5.34-1.21,6.84-14.71,2.26Z"/><path class="k" d="M121.49,336.31l-1.75,.64,1.75,.62,14.09,4.7v6.97l-22.75-9.44v-5.78l22.75-9.44v6.94l-14.09,4.78Z"/><path class="k" d="M124.9,373.56l-1.61,.94,1.83,.3,14.69,2.19,1.21,6.86-24.05-5.34-1-5.7,20.77-13.24,1.21,6.84-13.04,7.16Z"/><path class="k" d="M134.74,409.64l-1.42,1.2,1.85-.02,14.85-.4,2.38,6.55-24.61-1.08-1.98-5.44,18.15-16.65,2.37,6.52-11.6,9.31Z"/><path class="k" d="M150.69,443.48l-1.19,1.43,1.82-.34,14.55-2.97,3.48,6.03-24.42,3.21-2.89-5.01,14.99-19.55,3.47,6.01-9.81,11.19Z"/><path class="k" d="M172.27,474.03l-.93,1.62,1.74-.65,13.82-5.45,4.48,5.34-23.5,7.4-3.72-4.43,11.37-21.85,4.46,5.32-7.72,12.72Z"/><path class="k" d="M198.83,500.36l-.63,1.75,1.6-.94,12.66-7.77,5.34,4.48-21.85,11.37-4.43-3.72,7.4-23.5,5.32,4.46-5.39,13.87Z"/><path class="k" d="M229.56,521.69l-.32,1.84,1.41-1.21,11.12-9.85,6.03,3.48-19.55,14.99-5.01-2.89,3.21-24.42,6.01,3.47-2.9,14.59Z"/><path class="k" d="M263.53,537.35v1.86l1.18-1.43,9.24-11.63,6.55,2.38-16.65,18.15-5.44-1.98-1.08-24.61,6.52,2.37-.33,14.88Z"/><path class="k" d="M299.7,546.88l.33,1.83,.91-1.61,7.08-13.06,6.86,1.21-13.24,20.77-5.7-1-5.34-24.05,6.84,1.21,2.26,14.71Z"/><path class="k" d="M336.98,549.98l.64,1.75,.62-1.75,4.7-14.09h6.97l-9.44,22.75h-5.78l-9.44-22.75h6.94l4.78,14.09Z"/><path class="k" d="M374.22,546.57l.94,1.61,.3-1.83,2.19-14.69,6.86-1.21-5.34,24.05-5.7,1-13.24-20.77,6.84-1.21,7.16,13.04Z"/><path class="k" d="M410.31,536.73l1.2,1.42-.02-1.85-.4-14.85,6.55-2.38-1.08,24.61-5.44,1.98-16.65-18.15,6.52-2.37,9.31,11.6Z"/><path class="k" d="M444.15,520.78l1.43,1.19-.34-1.82-2.97-14.55,6.03-3.48,3.21,24.42-5.01,2.89-19.55-14.99,6.01-3.47,11.19,9.81Z"/><path class="k" d="M474.7,499.2l1.62,.93-.65-1.74-5.45-13.82,5.34-4.48,7.4,23.5-4.43,3.72-21.85-11.37,5.32-4.46,12.72,7.72Z"/><path class="k" d="M501.03,472.64l1.75,.63-.94-1.6-7.77-12.66,4.48-5.34,11.37,21.85-3.72,4.43-23.5-7.4,4.46-5.32,13.87,5.39Z"/><path class="k" d="M522.36,441.91l1.84,.32-1.21-1.41-9.85-11.12,3.48-6.03,14.99,19.55-2.89,5.01-24.42-3.21,3.47-6.01,14.59,2.9Z"/><path class="k" d="M538.02,407.94h1.86l-1.43-1.18-11.63-9.24,2.38-6.55,18.15,16.65-1.98,5.44-24.61,1.08,2.37-6.52,14.88,.33Z"/><path class="k" d="M547.55,371.77l1.83-.33-1.61-.91-13.06-7.08,1.21-6.86,20.77,13.24-1,5.7-24.05,5.34,1.21-6.84,14.71-2.26Z"/><path class="k" d="M550.65,334.49l1.75-.64-1.75-.62-14.09-4.7v-6.97l22.75,9.44v5.78l-22.75,9.44v-6.94l14.09-4.78Z"/><path class="k" d="M547.23,297.25l1.61-.94-1.83-.3-14.69-2.19-1.21-6.86,24.05,5.34,1,5.7-20.77,13.24-1.21-6.84,13.04-7.16Z"/><path class="k" d="M537.4,261.16l1.42-1.2-1.85,.02-14.85,.4-2.38-6.55,24.61,1.08,1.98,5.44-18.15,16.65-2.37-6.52,11.6-9.31Z"/><path class="k" d="M521.45,227.32l1.19-1.43-1.82,.34-14.55,2.97-3.48-6.03,24.42-3.21,2.89,5.01-14.99,19.55-3.47-6.01,9.81-11.19Z"/><path class="k" d="M499.87,196.77l.93-1.62-1.74,.65-13.82,5.45-4.48-5.34,23.5-7.4,3.72,4.43-11.37,21.85-4.46-5.32,7.72-12.72Z"/><path class="k" d="M473.31,170.44l.63-1.75-1.6,.94-12.66,7.77-5.34-4.48,21.85-11.37,4.43,3.72-7.4,23.5-5.32-4.46,5.39-13.87Z"/><path class="k" d="M442.58,149.11l.32-1.84-1.41,1.21-11.12,9.85-6.03-3.48,19.55-14.99,5.01,2.89-3.21,24.42-6.01-3.47,2.9-14.59Z"/><path class="k" d="M408.61,133.45v-1.86l-1.18,1.43-9.24,11.63-6.55-2.38,16.65-18.15,5.44,1.98,1.08,24.61-6.52-2.37,.33-14.88Z"/><path class="k" d="M372.44,123.92l-.33-1.83-.91,1.61-7.08,13.06-6.86-1.21,13.24-20.77,5.7,1,5.34,24.05-6.84-1.21-2.26-14.71Z"/></g><g><path class="g" d="M360.72,92.79l-.55-2.07-.89,1.94-6.87,15.66-7.97-.73,13.19-25.1,6.62,.61,8.4,27.08-7.94-.73-3.99-16.66Z"/><path class="g" d="M317.73,92.8l-.9-1.94-.54,2.07-4.05,16.62-7.98,.67,8.65-27.01,6.63-.55,12.97,25.21-7.95,.66-6.82-15.71Z"/><path class="g" d="M275.39,100.28l-1.23-1.76-.17,2.13-1.11,17.07-7.74,2.04,3.83-28.11,6.43-1.7,17.14,22.57-7.72,2.04-9.44-14.29Z"/><path class="g" d="M234.99,115.01l-1.51-1.52,.2,2.13,1.87,17-7.27,3.36-1.1-28.34,6.04-2.79,20.79,19.24-7.25,3.35-11.77-12.43Z"/><path class="g" d="M197.76,136.55l-1.75-1.23,.56,2.06,4.78,16.42-6.58,4.57-5.99-27.72,5.46-3.8,23.81,15.33-6.56,4.56-13.74-10.19Z"/><path class="g" d="M164.82,164.24l-1.94-.91,.91,1.93,7.56,15.33-5.69,5.65-10.71-26.25,4.72-4.69,26.11,10.95-5.67,5.63-15.3-7.64Z"/><path class="g" d="M137.18,197.24l-2.07-.56,1.23,1.74,10.1,13.79-4.62,6.55-15.09-23.99,3.84-5.44,27.61,6.24-4.61,6.53-16.39-4.86Z"/><path class="g" d="M115.67,234.55l-2.13-.19,1.51,1.5,12.34,11.82-3.42,7.26-19.02-21,2.84-6.03,28.28,1.34-3.4,7.23-16.99-1.94Z"/><path class="g" d="M100.96,275.02l-2.13,.19,1.75,1.21,14.2,9.49-2.11,7.74-22.37-17.37,1.75-6.43,28.08-3.6-2.1,7.71-17.07,1.05Z"/><path class="g" d="M93.48,317.44l-2.07,.55,1.94,.89,15.63,6.88-.73,7.99-25.05-13.21,.61-6.63,27.03-8.43-.73,7.96-16.63,4Z"/><path class="g" d="M93.47,360.51l-1.94,.9,2.06,.54,16.58,4.05,.66,8-26.96-8.65-.55-6.64,25.16-13,.66,7.97-15.68,6.84Z"/><path class="g" d="M100.93,402.93l-1.76,1.23,2.12,.17,17.04,1.1,2.04,7.76-28.05-3.83-1.69-6.44,22.53-17.18,2.03,7.73-14.26,9.46Z"/><path class="g" d="M115.62,443.41l-1.52,1.52,2.12-.2,16.97-1.88,3.35,7.29-28.29,1.11-2.78-6.05,19.21-20.84,3.34,7.26-12.41,11.8Z"/><path class="g" d="M137.1,480.71l-1.23,1.76,2.06-.56,16.39-4.8,4.56,6.59-27.67,6.01-3.79-5.47,15.31-23.87,4.55,6.57-10.17,13.77Z"/><path class="g" d="M164.73,513.7l-.91,1.94,1.93-.91,15.31-7.58,5.64,5.7-26.21,10.74-4.68-4.73,10.94-26.17,5.62,5.68-7.63,15.33Z"/><path class="g" d="M197.65,541.38l-.56,2.07,1.74-1.23,13.76-10.13,6.54,4.63-23.95,15.13-5.43-3.84,6.24-27.67,6.51,4.61-4.86,16.43Z"/><path class="g" d="M234.87,562.91l-.19,2.14,1.5-1.52,11.8-12.37,7.24,3.42-20.97,19.07-6.01-2.84,1.35-28.33,7.22,3.41-1.94,17.02Z"/><path class="g" d="M275.26,577.64l.18,2.14,1.21-1.76,9.48-14.23,7.73,2.11-17.34,22.43-6.41-1.75-3.58-28.14,7.7,2.1,1.04,17.1Z"/><path class="g" d="M317.6,585.12l.55,2.07,.89-1.94,6.87-15.66,7.97,.73-13.19,25.1-6.62-.61-8.4-27.08,7.94,.73,3.99,16.66Z"/><path class="g" d="M360.58,585.11l.9,1.94,.54-2.07,4.05-16.62,7.98-.67-8.65,27.01-6.63,.55-12.97-25.21,7.95-.66,6.82,15.71Z"/><path class="g" d="M402.92,577.63l1.23,1.76,.17-2.13,1.11-17.07,7.74-2.04-3.83,28.11-6.43,1.7-17.14-22.57,7.72-2.04,9.44,14.29Z"/><path class="g" d="M443.32,562.89l1.51,1.52-.2-2.13-1.87-17,7.27-3.36,1.1,28.34-6.04,2.79-20.79-19.24,7.25-3.35,11.77,12.43Z"/><path class="g" d="M480.55,541.35l1.75,1.23-.56-2.06-4.78-16.42,6.58-4.57,5.99,27.72-5.46,3.8-23.81-15.33,6.56-4.56,13.74,10.19Z"/><path class="g" d="M513.49,513.66l1.94,.91-.91-1.93-7.56-15.33,5.69-5.65,10.71,26.25-4.72,4.69-26.11-10.95,5.67-5.63,15.3,7.64Z"/><path class="g" d="M541.13,480.67l2.07,.56-1.23-1.74-10.1-13.79,4.62-6.55,15.09,23.99-3.84,5.44-27.61-6.24,4.61-6.53,16.39,4.86Z"/><path class="g" d="M562.64,443.36l2.13,.19-1.51-1.5-12.34-11.82,3.42-7.26,19.02,21-2.84,6.03-28.28-1.34,3.4-7.23,16.99,1.94Z"/><path class="g" d="M577.35,402.89l2.13-.19-1.75-1.21-14.2-9.49,2.11-7.74,22.37,17.37-1.75,6.43-28.08,3.6,2.1-7.71,17.07-1.05Z"/><path class="g" d="M584.83,360.47l2.07-.55-1.94-.89-15.63-6.88,.73-7.99,25.05,13.21-.61,6.63-27.03,8.43,.73-7.96,16.63-4Z"/><path class="g" d="M584.84,317.39l1.94-.9-2.06-.54-16.58-4.05-.66-8,26.96,8.65,.55,6.64-25.16,13-.66-7.97,15.68-6.84Z"/><path class="g" d="M577.38,274.98l1.76-1.23-2.12-.17-17.04-1.1-2.04-7.76,28.05,3.83,1.69,6.44-22.53,17.18-2.03-7.73,14.26-9.46Z"/><path class="g" d="M562.69,234.5l1.52-1.52-2.12,.2-16.97,1.88-3.35-7.29,28.29-1.11,2.78,6.05-19.21,20.84-3.34-7.26,12.41-11.8Z"/><path class="g" d="M541.21,197.2l1.23-1.76-2.06,.56-16.39,4.8-4.56-6.59,27.67-6.01,3.79,5.47-15.31,23.87-4.55-6.57,10.17-13.77Z"/><path class="g" d="M513.59,164.21l.91-1.94-1.93,.91-15.31,7.58-5.64-5.7,26.21-10.74,4.68,4.73-10.94,26.17-5.62-5.68,7.63-15.33Z"/><path class="g" d="M480.66,136.53l.56-2.07-1.74,1.23-13.76,10.13-6.54-4.63,23.95-15.13,5.43,3.84-6.24,27.67-6.51-4.61,4.86-16.43Z"/><path class="g" d="M443.44,114.99l.19-2.14-1.5,1.52-11.8,12.37-7.24-3.42,20.97-19.07,6.01,2.84-1.35,28.33-7.22-3.41,1.94-17.02Z"/><path class="g" d="M403.05,100.27l-.18-2.14-1.21,1.76-9.48,14.23-7.73-2.11,17.34-22.43,6.41,1.75,3.58,28.14-7.7-2.1-1.04-17.1Z"/></g><g><path class="i" d="M291.65,60.81l-1.2-2.14-.43,2.41-3.11,19.34-9.02,1.49,7.41-31.63,7.49-1.23,17.03,27.6-8.99,1.48-9.17-17.32Z"/><path class="i" d="M244.14,73.21l-1.55-1.9v2.45l.27,19.59-8.63,3.04,1.83-32.44,7.17-2.52,21.54,24.21-8.6,3.03-12.03-15.45Z"/><path class="i" d="M199.48,93.7l-1.86-1.6,.42,2.41,3.65,19.24-7.98,4.5-3.8-32.26,6.62-3.73,25.4,20.08-7.95,4.48-14.51-13.12Z"/><path class="i" d="M159.04,121.68l-2.11-1.25,.83,2.3,6.92,18.31-7.08,5.82-9.32-31.11,5.88-4.83,28.49,15.34-7.05,5.8-16.56-10.38Z"/><path class="i" d="M124.04,156.28l-2.29-.86,1.21,2.12,9.98,16.82-5.97,6.97-14.55-29,4.95-5.78,30.71,10.13-5.94,6.94-18.11-7.33Z"/><path class="i" d="M95.54,196.47l-2.4-.45,1.56,1.88,12.74,14.82-4.67,7.9-19.34-26.02,3.88-6.56,31.99,4.62-4.65,7.87-19.1-4.06Z"/><path class="i" d="M74.42,241.02l-2.44-.02,1.86,1.58,15.11,12.37-3.24,8.6-23.54-22.25,2.69-7.14,32.31-1.04-3.22,8.57-19.51-.67Z"/><path class="i" d="M61.32,288.57l-2.41,.41,2.1,1.23,17.02,9.55-1.7,9.03-27.03-17.8,1.41-7.5,31.64-6.66-1.7,9-19.33,2.75Z"/><path class="i" d="M56.63,337.68l-2.3,.82,2.28,.84,18.41,6.43-.12,9.19-29.7-12.81,.1-7.63,30.01-12.08-.12,9.16-18.57,6.08Z"/><path class="i" d="M60.49,386.86l-2.13,1.21,2.39,.43,19.24,3.12,1.47,9.07-31.46-7.43-1.22-7.53,27.47-17.13,1.47,9.04-17.24,9.23Z"/><path class="i" d="M72.79,434.61l-1.89,1.56h2.43l19.49-.28,3.02,8.67-32.27-1.82-2.51-7.2,24.1-21.67,3.01,8.64-15.38,12.1Z"/><path class="i" d="M93.16,479.49l-1.59,1.87,2.4-.42,19.15-3.68,4.47,8.01-32.1,3.84-3.71-6.65,19.99-25.54,4.45,7.98-13.06,14.6Z"/><path class="i" d="M120.97,520.12l-1.24,2.12,2.29-.83,18.22-6.97,5.79,7.11-30.95,9.38-4.81-5.9,15.28-28.64,5.77,7.08-10.34,16.65Z"/><path class="i" d="M155.38,555.28l-.86,2.3,2.11-1.22,16.74-10.04,6.93,5.99-28.86,14.64-5.75-4.98,10.1-30.87,6.9,5.97-7.31,18.2Z"/><path class="i" d="M195.35,583.9l-.45,2.42,1.87-1.57,14.75-12.81,7.86,4.69-25.9,19.45-6.53-3.89,4.61-32.16,7.83,4.67-4.05,19.2Z"/><path class="i" d="M239.66,605.1l-.02,2.46,1.57-1.87,12.32-15.19,8.55,3.25-22.15,23.68-7.1-2.7-1.01-32.47,8.52,3.24-.67,19.61Z"/><path class="i" d="M286.96,618.25l.4,2.42,1.22-2.11,9.51-17.11,8.98,1.71-17.72,27.18-7.46-1.42-6.61-31.8,8.95,1.7,2.72,19.43Z"/><path class="i" d="M335.82,622.94l.81,2.32,.84-2.3,6.41-18.51,9.14,.11-12.76,29.86-7.59-.09-12-30.16,9.11,.11,6.04,18.66Z"/><path class="i" d="M384.75,619.03l1.2,2.14,.43-2.41,3.11-19.34,9.02-1.49-7.41,31.63-7.49,1.23-17.03-27.6,8.99-1.48,9.17,17.32Z"/><path class="i" d="M432.26,606.64l1.55,1.9v-2.45l-.27-19.59,8.63-3.04-1.83,32.44-7.17,2.52-21.54-24.21,8.6-3.03,12.03,15.45Z"/><path class="i" d="M476.92,586.14l1.86,1.6-.42-2.41-3.65-19.24,7.98-4.5,3.8,32.26-6.62,3.73-25.4-20.08,7.95-4.48,14.51,13.12Z"/><path class="i" d="M517.37,558.16l2.11,1.25-.83-2.3-6.92-18.31,7.08-5.82,9.32,31.11-5.88,4.83-28.49-15.34,7.05-5.8,16.56,10.38Z"/><path class="i" d="M552.37,523.56l2.29,.86-1.21-2.12-9.98-16.82,5.97-6.97,14.55,29-4.95,5.78-30.71-10.13,5.94-6.94,18.11,7.33Z"/><path class="i" d="M580.86,483.37l2.4,.45-1.56-1.88-12.74-14.82,4.67-7.9,19.34,26.02-3.88,6.56-31.99-4.62,4.65-7.87,19.1,4.06Z"/><path class="i" d="M601.98,438.82l2.44,.02-1.86-1.58-15.11-12.37,3.24-8.6,23.54,22.25-2.69,7.14-32.31,1.04,3.22-8.57,19.51,.67Z"/><path class="i" d="M615.08,391.27l2.41-.41-2.1-1.23-17.02-9.55,1.7-9.03,27.03,17.8-1.41,7.5-31.64,6.66,1.7-9,19.33-2.75Z"/><path class="i" d="M619.77,342.16l2.3-.82-2.28-.84-18.41-6.43,.12-9.19,29.7,12.81-.1,7.63-30.01,12.08,.12-9.16,18.57-6.08Z"/><path class="i" d="M615.91,292.98l2.13-1.21-2.39-.43-19.24-3.12-1.47-9.07,31.46,7.43,1.22,7.53-27.47,17.13-1.47-9.04,17.24-9.23Z"/><path class="i" d="M603.61,245.23l1.89-1.56h-2.43l-19.49,.28-3.02-8.67,32.27,1.82,2.51,7.2-24.1,21.67-3.01-8.64,15.38-12.1Z"/><path class="i" d="M583.24,200.35l1.59-1.87-2.4,.42-19.15,3.68-4.47-8.01,32.1-3.84,3.71,6.65-19.99,25.54-4.45-7.98,13.06-14.6Z"/><path class="i" d="M555.43,159.72l1.24-2.12-2.29,.83-18.22,6.97-5.79-7.11,30.95-9.38,4.81,5.9-15.28,28.64-5.77-7.08,10.34-16.65Z"/><path class="i" d="M521.02,124.56l.86-2.3-2.11,1.22-16.74,10.04-6.93-5.99,28.86-14.64,5.75,4.98-10.1,30.87-6.9-5.97,7.31-18.2Z"/><path class="i" d="M481.05,95.94l.45-2.42-1.87,1.57-14.75,12.81-7.86-4.69,25.9-19.45,6.53,3.89-4.61,32.16-7.83-4.67,4.05-19.2Z"/><path class="i" d="M436.75,74.74l.02-2.46-1.57,1.87-12.32,15.19-8.55-3.25,22.15-23.68,7.1,2.7,1.01,32.47-8.52-3.24,.67-19.61Z"/><path class="i" d="M389.44,61.59l-.4-2.42-1.22,2.11-9.51,17.11-8.98-1.71,17.72-27.18,7.46,1.42,6.61,31.8-8.95-1.7-2.72-19.43Z"/><path class="i" d="M340.59,56.9l-.81-2.32-.84,2.3-6.41,18.51-9.14-.11,12.76-29.86,7.59,.09,12,30.16-9.11-.11-6.04-18.66Z"/></g><g><path class="n" d="M252.29,23.74l-1.62-2.32-.22,2.81-1.39,22.56-10.19,2.72,4.94-37.15,8.46-2.26,22.67,29.77-10.15,2.71-12.48-18.85Z"/><path class="n" d="M199.13,43.32l-2-2,.27,2.81,2.52,22.46-9.57,4.46-1.55-37.45,7.94-3.7,27.46,25.36-9.53,4.44-15.55-16.38Z"/><path class="n" d="M150.17,71.89l-2.31-1.62,.75,2.72,6.37,21.68-8.65,6.06-8-36.61,7.18-5.03,31.43,20.19-8.62,6.04-18.14-13.42Z"/><path class="n" d="M106.9,108.57l-2.56-1.19,1.21,2.55,10.01,20.24-7.47,7.48-14.2-34.66,6.2-6.21,34.43,14.4-7.44,7.45-20.18-10.05Z"/><path class="n" d="M70.62,152.25l-2.72-.73,1.63,2.3,13.36,18.19-6.06,8.67-19.97-31.66,5.03-7.2,36.39,8.17-6.04,8.64-21.61-6.38Z"/><path class="n" d="M42.44,201.6l-2.81-.24,2,1.98,16.3,15.58-4.47,9.6-25.14-27.69,3.71-7.97,37.25,1.69-4.46,9.56-22.38-2.51Z"/><path class="n" d="M23.22,255.12l-2.81,.25,2.31,1.6,18.74,12.5-2.75,10.23-29.54-22.89,2.28-8.5,36.97-4.83-2.74,10.2-22.48,1.43Z"/><path class="n" d="M13.53,311.19l-2.72,.74,2.55,1.17,20.61,9.04-.94,10.56L0,315.32l.78-8.77,35.57-11.21-.93,10.52-21.89,5.34Z"/><path class="n" d="M13.69,368.1l-2.55,1.2,2.72,.71,21.86,5.31,.9,10.56L1.07,374.53l-.75-8.77,33.09-17.25,.9,10.52-20.63,9.08Z"/><path class="n" d="M23.67,424.13l-2.31,1.63,2.8,.22,22.44,1.41,2.71,10.25-36.96-4.98-2.25-8.51,29.61-22.77,2.7,10.21-18.75,12.54Z"/><path class="n" d="M43.18,477.56l-1.99,2.01,2.79-.27,22.34-2.53,4.44,9.62-37.26,1.54-3.69-7.98,25.22-27.59,4.43,9.58-16.29,15.62Z"/><path class="n" d="M71.62,526.79l-1.61,2.32,2.7-.75,21.57-6.39,6.04,8.7-36.42,8.02-5.01-7.22,20.07-31.58,6.01,8.66-13.35,18.23Z"/><path class="n" d="M108.13,570.3l-1.19,2.57,2.53-1.21,20.13-10.06,7.45,7.51-34.48,14.26-6.18-6.24,14.31-34.6,7.42,7.48-9.99,20.28Z"/><path class="n" d="M151.6,606.79l-.73,2.74,2.29-1.64,18.09-13.42,8.63,6.1-31.49,20.06-7.17-5.06,8.11-36.58,8.6,6.08-6.34,21.72Z"/><path class="n" d="M200.71,635.13l-.24,2.82,1.97-2.01,15.49-16.37,9.55,4.5-27.54,25.25-7.93-3.74,1.67-37.44,9.52,4.48-2.49,22.5Z"/><path class="n" d="M253.97,654.48l.25,2.82,1.59-2.32,12.43-18.83,10.18,2.76-22.76,29.68-8.45-2.3-4.83-37.17,10.15,2.75,1.44,22.59Z"/><path class="n" d="M309.76,664.24l.73,2.74,1.17-2.57,8.99-20.71,10.51,.95-17.28,33.2-8.72-.78-11.17-35.76,10.47,.94,5.32,22Z"/><path class="n" d="M366.38,664.11l1.2,2.57,.7-2.73,5.27-21.97,10.51-.9-11.28,35.72-8.72,.75-17.18-33.27,10.47-.9,9.04,20.74Z"/><path class="n" d="M422.12,654.1l1.62,2.32,.22-2.81,1.39-22.56,10.19-2.72-4.94,37.15-8.46,2.26-22.67-29.77,10.15-2.71,12.48,18.85Z"/><path class="n" d="M475.27,634.52l2,2-.27-2.81-2.52-22.46,9.57-4.46,1.55,37.45-7.94,3.7-27.46-25.36,9.53-4.44,15.55,16.38Z"/><path class="n" d="M524.23,605.95l2.31,1.62-.75-2.72-6.37-21.68,8.65-6.06,8,36.61-7.18,5.03-31.43-20.19,8.62-6.04,18.14,13.42Z"/><path class="n" d="M567.51,569.27l2.56,1.19-1.21-2.55-10.01-20.24,7.47-7.48,14.2,34.66-6.2,6.21-34.43-14.4,7.44-7.45,20.18,10.05Z"/><path class="n" d="M603.78,525.59l2.72,.73-1.63-2.3-13.36-18.19,6.06-8.67,19.97,31.66-5.03,7.2-36.39-8.17,6.04-8.64,21.61,6.38Z"/><path class="n" d="M631.96,476.24l2.81,.24-2-1.98-16.3-15.58,4.47-9.6,25.14,27.69-3.71,7.97-37.25-1.69,4.46-9.56,22.38,2.51Z"/><path class="n" d="M651.19,422.72l2.81-.25-2.31-1.6-18.74-12.5,2.75-10.23,29.54,22.89-2.28,8.5-36.97,4.83,2.74-10.2,22.48-1.43Z"/><path class="n" d="M660.87,366.65l2.72-.74-2.55-1.17-20.61-9.04,.94-10.56,33.04,17.39-.78,8.77-35.57,11.21,.93-10.52,21.89-5.34Z"/><path class="n" d="M660.72,309.74l2.55-1.2-2.72-.71-21.86-5.31-.9-10.56,35.54,11.36,.75,8.77-33.09,17.25-.9-10.52,20.63-9.08Z"/><path class="n" d="M650.73,253.71l2.31-1.63-2.8-.22-22.44-1.41-2.71-10.25,36.96,4.98,2.25,8.51-29.61,22.77-2.7-10.21,18.75-12.54Z"/><path class="n" d="M631.22,200.28l1.99-2.01-2.79,.27-22.34,2.53-4.44-9.62,37.26-1.54,3.69,7.98-25.22,27.59-4.43-9.58,16.29-15.62Z"/><path class="n" d="M602.78,151.05l1.61-2.32-2.7,.75-21.57,6.39-6.04-8.7,36.42-8.02,5.01,7.22-20.07,31.58-6.01-8.66,13.35-18.23Z"/><path class="n" d="M566.27,107.54l1.19-2.57-2.53,1.21-20.13,10.06-7.45-7.51,34.48-14.26,6.18,6.24-14.31,34.6-7.42-7.48,9.99-20.28Z"/><path class="n" d="M522.8,71.05l.73-2.74-2.29,1.64-18.09,13.42-8.63-6.1,31.49-20.06,7.17,5.06-8.11,36.58-8.6-6.08,6.34-21.72Z"/><path class="n" d="M473.69,42.71l.24-2.82-1.97,2.01-15.49,16.37-9.55-4.5,27.54-25.25,7.93,3.74-1.67,37.44-9.52-4.48,2.49-22.5Z"/><path class="n" d="M420.43,23.36l-.25-2.82-1.59,2.32-12.43,18.83-10.18-2.76,22.76-29.68,8.45,2.3,4.83,37.17-10.15-2.75-1.44-22.59Z"/><path class="n" d="M364.64,13.6l-.73-2.74-1.17,2.57-8.99,20.71-10.51-.95L360.53,0l8.72,.78,11.17,35.76-10.47-.94-5.32-22Z"/><path class="n" d="M308.02,13.73l-1.2-2.57-.7,2.73-5.27,21.97-10.51,.9L301.62,1.05l8.72-.75,17.18,33.27-10.47,.9-9.04-20.74Z"/></g></g></svg>