<svg id="Layer_1" data-name="Layer 1" xmlns="http://www.w3.org/2000/svg" viewBox="0 0 574.84 274.72"><defs><style>.cls-1{fill:#e5e288;}.cls-2{fill:#ccc;}.cls-3{fill:#4ac3ff;}.cls-4{fill:#984ea0;}</style></defs><path class="cls-1" d="M58.55,264.21h9.91l7.61,41.7,1.33,9.36L79,305.91l10.46-41.7h7.19l10.39,41.7,1.76,10.27,1.63-10.27,7.25-41.7h9.91l-13.9,65.39H104.9L94.69,289.53,93,279.38l-1.63,10.15L81.27,329.6H72.45Z" transform="translate(-58.55 -230.31)"/><path class="cls-1" d="M159.75,328.45a28.7,28.7,0,0,1-9.88-6.59,30.25,30.25,0,0,1-6.41-10,34,34,0,0,1-2.29-12.63v-2.54a37.25,37.25,0,0,1,2.54-14.17,32.49,32.49,0,0,1,6.76-10.6A29.35,29.35,0,0,1,160,265.3a27.58,27.58,0,0,1,11-2.3,29.22,29.22,0,0,1,12.36,2.45,24.45,24.45,0,0,1,8.79,6.74,29.14,29.14,0,0,1,5.23,10.21,44.8,44.8,0,0,1,1.72,12.69v5H152.35v.42a28.83,28.83,0,0,0,1.9,8.4,20.81,20.81,0,0,0,4.08,6.4,19,19,0,0,0,6.41,4.66,19.79,19.79,0,0,0,8.27,1.69,22.76,22.76,0,0,0,10.64-2.42,23.12,23.12,0,0,0,7.74-6.4l6.82,5.31a29,29,0,0,1-9.76,8.8q-6.49,3.84-16,3.83A33.22,33.22,0,0,1,159.75,328.45Zm4.8-55a16.85,16.85,0,0,0-5.43,3.59,20.85,20.85,0,0,0-4.08,5.89,27.76,27.76,0,0,0-2.33,8h35.17v-.54a20.66,20.66,0,0,0-1.15-6.5,18.66,18.66,0,0,0-3.2-6,15.59,15.59,0,0,0-5.17-4.11,16.19,16.19,0,0,0-7.4-1.57A16.67,16.67,0,0,0,164.55,273.43Z" transform="translate(-58.55 -230.31)"/><path class="cls-1" d="M275.3,305.88a43.05,43.05,0,0,1-1.85,7.4,32.34,32.34,0,0,1-4.26,8.13,23.33,23.33,0,0,1-6.31,5.95,23.68,23.68,0,0,1-5.83,2.54,25.12,25.12,0,0,1-6.86.9,27.35,27.35,0,0,1-7.71-1,21.7,21.7,0,0,1-6.25-3,24.39,24.39,0,0,1-2.54-2.12,22.6,22.6,0,0,1-2.3-2.54l-.54,7.44H220.58V236.78h11.18v34.44a21.48,21.48,0,0,1,3.08-3.17,20.56,20.56,0,0,1,3.62-2.45,22.09,22.09,0,0,1,5.32-1.93,27.71,27.71,0,0,1,6.29-.67,25.46,25.46,0,0,1,7.79,1.15,23.83,23.83,0,0,1,6.47,3.2A22.73,22.73,0,0,1,269,272a34.65,34.65,0,0,1,3.63,6.13,39.6,39.6,0,0,1,2.47,8.43,53.64,53.64,0,0,1,.85,9.76v1.27A52.46,52.46,0,0,1,275.3,305.88Zm-10.94-15.53a35.3,35.3,0,0,0-1.18-5.53,25.46,25.46,0,0,0-2.84-5.86,13.11,13.11,0,0,0-4.29-4.17,15.16,15.16,0,0,0-3.93-1.7,18.15,18.15,0,0,0-4.83-.6,17.54,17.54,0,0,0-5.32.76,15,15,0,0,0-4.29,2.08,17.47,17.47,0,0,0-3.42,3.23,20.21,20.21,0,0,0-2.5,4v28.59a22.06,22.06,0,0,0,2.56,4,17.52,17.52,0,0,0,3.42,3.24,15.21,15.21,0,0,0,4.35,2.14,17.54,17.54,0,0,0,5.32.76,17.21,17.21,0,0,0,5.07-.7,13.59,13.59,0,0,0,4.11-2,14.83,14.83,0,0,0,4.05-4.29,23.92,23.92,0,0,0,2.6-5.8,29.11,29.11,0,0,0,1.15-5.2,44.19,44.19,0,0,0,.36-5.68v-1.27A45.51,45.51,0,0,0,264.36,290.35Z" transform="translate(-58.55 -230.31)"/><path class="cls-2" d="M307.2,277.63a90.88,90.88,0,0,1,3.66-14.14,77.76,77.76,0,0,1,5.29-11.85,69,69,0,0,1,6.31-9.55,54.9,54.9,0,0,1,6.59-7.13,36.82,36.82,0,0,1,6.34-4.65l2.36,7.37a32.32,32.32,0,0,0-3.9,3.51,47.51,47.51,0,0,0-3.84,4.59A63.61,63.61,0,0,0,324.7,255a65.39,65.39,0,0,0-4.23,11.57,85.74,85.74,0,0,0-2.54,12.51,110.68,110.68,0,0,0-.91,14.68v.85a110.13,110.13,0,0,0,.85,14.14,97.62,97.62,0,0,0,2.29,12.14,84.19,84.19,0,0,0,3.63,10.43,76.72,76.72,0,0,0,4.29,8.61,53.21,53.21,0,0,0,4.74,6.44,40.08,40.08,0,0,0,4.93,4.8L335.39,358a38.56,38.56,0,0,1-6.37-4.62,50.6,50.6,0,0,1-6.62-7.17,69.74,69.74,0,0,1-6.31-9.51,72,72,0,0,1-5.23-11.88,88.94,88.94,0,0,1-3.66-14.08,93,93,0,0,1-1.36-16.25v-.61A93,93,0,0,1,307.2,277.63Z" transform="translate(-58.55 -230.31)"/><path class="cls-3" d="M368.78,282.91a31.83,31.83,0,0,1,5.29-10.54,24,24,0,0,1,8.22-6.89A23.35,23.35,0,0,1,393.1,263a24.89,24.89,0,0,1,10.25,2,21.41,21.41,0,0,1,7.58,5.71v-33.9h11.18V329.6H411.84l-.49-6.89a21.31,21.31,0,0,1-7.79,6A25.41,25.41,0,0,1,393,330.8a22.58,22.58,0,0,1-10.72-2.53,24.56,24.56,0,0,1-8.19-7,33.76,33.76,0,0,1-5.26-10.55,44.14,44.14,0,0,1-1.87-13.08v-1.27A46.58,46.58,0,0,1,368.78,282.91Zm10.36,23.78a23.45,23.45,0,0,0,3.21,7.56,15.15,15.15,0,0,0,13.41,7.07,16.07,16.07,0,0,0,9.31-2.54,18,18,0,0,0,5.86-6.83V281.62a19,19,0,0,0-5.86-6.56,15.71,15.71,0,0,0-9.19-2.57,15.25,15.25,0,0,0-13.53,7.13,24.15,24.15,0,0,0-3.21,7.65,39.44,39.44,0,0,0-1,9.09v1.27A39.06,39.06,0,0,0,379.14,306.69Z" transform="translate(-58.55 -230.31)"/><path class="cls-3" d="M460.91,328.45a28.7,28.7,0,0,1-9.88-6.59,30.09,30.09,0,0,1-6.41-10,34,34,0,0,1-2.29-12.63v-2.54a37.44,37.44,0,0,1,2.53-14.17,32.52,32.52,0,0,1,6.77-10.6,29.24,29.24,0,0,1,9.52-6.59,27.54,27.54,0,0,1,11-2.3,29.14,29.14,0,0,1,12.35,2.45,24.41,24.41,0,0,1,8.8,6.74,29.12,29.12,0,0,1,5.22,10.21,44.8,44.8,0,0,1,1.73,12.69v5H453.5v.42a29.15,29.15,0,0,0,1.91,8.4,20.45,20.45,0,0,0,4.08,6.4,18.91,18.91,0,0,0,6.4,4.66,19.87,19.87,0,0,0,8.28,1.69,22.59,22.59,0,0,0,18.37-8.82l6.83,5.31a29,29,0,0,1-9.76,8.8q-6.5,3.84-16,3.83A33.14,33.14,0,0,1,460.91,328.45Zm4.8-55a16.89,16.89,0,0,0-5.44,3.59,21.27,21.27,0,0,0-4.08,5.89,27.76,27.76,0,0,0-2.32,8H489v-.54a21,21,0,0,0-1.15-6.5,18.85,18.85,0,0,0-3.2-6,15.7,15.7,0,0,0-5.17-4.11,16.22,16.22,0,0,0-7.4-1.57A16.67,16.67,0,0,0,465.71,273.43Z" transform="translate(-58.55 -230.31)"/><path class="cls-3" d="M513.74,264.21h11.48L544,313.52l1,4.05,1.09-4.05,18.31-49.31H575.8L549.15,329.6h-8.52Z" transform="translate(-58.55 -230.31)"/><path class="cls-2" d="M632,310.74a89,89,0,0,1-3.65,14.08,77.46,77.46,0,0,1-5.29,11.88,74.61,74.61,0,0,1-6.26,9.51,53.24,53.24,0,0,1-6.67,7.17,39,39,0,0,1-6.38,4.62l-2.36-6.83a32.89,32.89,0,0,0,5.14-4.83,50.77,50.77,0,0,0,5-6.83,86.39,86.39,0,0,0,4.32-8.86,64.27,64.27,0,0,0,3.41-10.78,92.07,92.07,0,0,0,2.15-11.76,114.67,114.67,0,0,0,.75-13.5v-.85a99.48,99.48,0,0,0-1-14.8,111.55,111.55,0,0,0-2.2-11.3,70.74,70.74,0,0,0-4.23-11.94,72.25,72.25,0,0,0-5.08-9.21,41.34,41.34,0,0,0-4.11-5.41,39.33,39.33,0,0,0-4.11-4l2.36-6.83a39.14,39.14,0,0,1,6.41,4.65,52.43,52.43,0,0,1,6.64,7.13,75.4,75.4,0,0,1,6.35,9.55,71.26,71.26,0,0,1,5.2,11.85A101.78,101.78,0,0,1,632,277.23a88.6,88.6,0,0,1,1.42,16.65v.61A92,92,0,0,1,632,310.74Z" transform="translate(-58.55 -230.31)"/><path class="cls-2" d="M178.88,502.47a20.94,20.94,0,0,1-6.72-6.33,28.3,28.3,0,0,1-3.87-8.4,33.54,33.54,0,0,1-1.32-9.2v-9.63q0-8.21-3.9-11.91t-11.93-3.76V445q8,0,11.93-3.68t3.9-11.93v-9.69a38.05,38.05,0,0,1,1.23-9.43,26.28,26.28,0,0,1,3.9-8.63,19.6,19.6,0,0,1,6.56-5.95,20.67,20.67,0,0,1,9.8-2.48l1.19,6.55a10.45,10.45,0,0,0-10.14,6.55,20.68,20.68,0,0,0-1.6,6.38c-.22,2.36-.34,4.7-.34,7v9.69a22.45,22.45,0,0,1-3.16,12,19.7,19.7,0,0,1-9.77,7.84,19.22,19.22,0,0,1,9.74,7.77,22.94,22.94,0,0,1,3.19,11.94v9.63a43.88,43.88,0,0,0,.57,7,21.29,21.29,0,0,0,2,6.29,12.93,12.93,0,0,0,3.67,4.67,9.67,9.67,0,0,0,5.84,1.94L188.46,505A19.73,19.73,0,0,1,178.88,502.47Z" transform="translate(-58.55 -230.31)"/><path class="cls-4" d="M242.74,475.86a16.24,16.24,0,0,0,4.82-2.56,13.13,13.13,0,0,0,3.39-3.79,9.66,9.66,0,0,0,1.33-4.76h10a16.28,16.28,0,0,1-2.14,7.83,22.17,22.17,0,0,1-5.56,6.53,27.67,27.67,0,0,1-8,4.53,26.68,26.68,0,0,1-9.4,1.68,28.08,28.08,0,0,1-12.25-2.51,24.87,24.87,0,0,1-8.72-6.78,28.44,28.44,0,0,1-5.3-9.77,38.34,38.34,0,0,1-1.77-11.71v-2.39a38.38,38.38,0,0,1,1.77-11.68,29,29,0,0,1,5.3-9.86,25.19,25.19,0,0,1,8.72-6.72,30.57,30.57,0,0,1,22.3-.77,25.7,25.7,0,0,1,7.95,4.7,22.08,22.08,0,0,1,5.19,7.12,20.89,20.89,0,0,1,1.88,8.78h-10a12.68,12.68,0,0,0-1.22-5.27,14.22,14.22,0,0,0-3.16-4.36,14.71,14.71,0,0,0-4.76-3,16.21,16.21,0,0,0-5.95-1.08,15.33,15.33,0,0,0-13.62,7.07,22,22,0,0,0-2.94,7.12,35.94,35.94,0,0,0-.88,7.92v2.39a36.61,36.61,0,0,0,.88,8,21.25,21.25,0,0,0,2.94,7.09,15.32,15.32,0,0,0,5.33,5.16,16.07,16.07,0,0,0,8.29,2A17.22,17.22,0,0,0,242.74,475.86Z" transform="translate(-58.55 -230.31)"/><path class="cls-4" d="M312.35,396.66v78.4h20.12v9.12H280.85v-9.12h21V405.84h-21v-9.18Z" transform="translate(-58.55 -230.31)"/><path class="cls-4" d="M390.85,475.69a21.19,21.19,0,0,1-18.35,9.63,24.2,24.2,0,0,1-8.77-1.51,16.92,16.92,0,0,1-6.73-4.7,21.93,21.93,0,0,1-4.3-8.12,40.92,40.92,0,0,1-1.51-11.82V422.53h10.54v36.75a36.35,36.35,0,0,0,.8,8.32,12.94,12.94,0,0,0,2.39,5.24,8.49,8.49,0,0,0,3.91,2.79,16.06,16.06,0,0,0,5.33.8,21.94,21.94,0,0,0,6.32-.83,15.73,15.73,0,0,0,4.84-2.3,13.39,13.39,0,0,0,3-2.88,17,17,0,0,0,2.14-3.67V422.53h10.6v61.65h-9.57Z" transform="translate(-58.55 -230.31)"/><path class="cls-4" d="M479.18,461.82a40.71,40.71,0,0,1-1.74,7,30.62,30.62,0,0,1-4,7.66,20.59,20.59,0,0,1-11.45,8,23.43,23.43,0,0,1-6.47.86,25.36,25.36,0,0,1-7.26-1,20.31,20.31,0,0,1-5.9-2.79,22.61,22.61,0,0,1-2.39-2,21.82,21.82,0,0,1-2.17-2.39l-.51,7h-9.69V396.66h10.54v32.48a21.12,21.12,0,0,1,2.91-3,19.74,19.74,0,0,1,3.42-2.31,20.68,20.68,0,0,1,5-1.82,26.44,26.44,0,0,1,5.93-.63,23.91,23.91,0,0,1,7.35,1.08,22.5,22.5,0,0,1,6.09,3,21.4,21.4,0,0,1,4.39,4.42,33,33,0,0,1,3.42,5.78,37.53,37.53,0,0,1,2.34,7.95,51.25,51.25,0,0,1,.79,9.2V454A49,49,0,0,1,479.18,461.82Zm-10.32-14.65a31.78,31.78,0,0,0-1.11-5.21,24.19,24.19,0,0,0-2.67-5.53A12.63,12.63,0,0,0,461,432.5a14.35,14.35,0,0,0-3.7-1.59,17,17,0,0,0-4.56-.57,16.6,16.6,0,0,0-5,.71,14.31,14.31,0,0,0-4,2,16.36,16.36,0,0,0-3.22,3.05,19.16,19.16,0,0,0-2.37,3.79V466.8a21.48,21.48,0,0,0,2.43,3.79,16.07,16.07,0,0,0,3.22,3.05,14.13,14.13,0,0,0,4.1,2,18,18,0,0,0,9.8.06,12.72,12.72,0,0,0,3.87-1.91,13.83,13.83,0,0,0,3.82-4.05,22.53,22.53,0,0,0,2.45-5.47,27.5,27.5,0,0,0,1.08-4.9,40.87,40.87,0,0,0,.34-5.35v-1.2A42.3,42.3,0,0,0,468.86,447.17Z" transform="translate(-58.55 -230.31)"/><path class="cls-2" d="M510.1,496.54a13.36,13.36,0,0,0,3.76-4.67,23.18,23.18,0,0,0,2-6.29,41.74,41.74,0,0,0,.6-7v-9.63a25.07,25.07,0,0,1,1.33-8.32A17.36,17.36,0,0,1,521.9,454a20.14,20.14,0,0,1,3.33-2.68,24.7,24.7,0,0,1,4.07-2.1,23.21,23.21,0,0,1-4.18-2.17,18.57,18.57,0,0,1-7.38-9.43,24.83,24.83,0,0,1-1.31-8.23v-9.69a69.34,69.34,0,0,0-.37-7,22.52,22.52,0,0,0-1.57-6.38,11.72,11.72,0,0,0-3.65-4.61,11,11,0,0,0-6.49-1.94l1.14-6.55a20.86,20.86,0,0,1,9.48,2.33,19.86,19.86,0,0,1,6.53,5.65,25.6,25.6,0,0,1,4.18,8.83,37.85,37.85,0,0,1,1.29,9.68v9.69a24.53,24.53,0,0,0,.65,6,13.43,13.43,0,0,0,2,4.47,10.59,10.59,0,0,0,5.21,3.9,23.18,23.18,0,0,0,8,1.23v8.26a25.47,25.47,0,0,0-7.15,1,11.52,11.52,0,0,0-5,2.93,12,12,0,0,0-2.79,4.85,23,23,0,0,0-.91,6.89v9.63a35,35,0,0,1-1.26,9.2,27.17,27.17,0,0,1-3.87,8.46,22.13,22.13,0,0,1-6.72,6.27,19,19,0,0,1-9.63,2.56l-1.2-6.55A9.69,9.69,0,0,0,510.1,496.54Z" transform="translate(-58.55 -230.31)"/></svg>