<svg xmlns="http://www.w3.org/2000/svg" xmlns:xlink="http://www.w3.org/1999/xlink" viewBox="0 0 700 700"><defs><style>.cls-1{fill:#0e1128;}.cls-2{fill:url(#radial-gradient);}.cls-3{fill:#e5e288;}.cls-4{fill:#ccc;}.cls-5{fill:#4ac3ff;}.cls-6{fill:#984ea0;}.cls-7{fill:#00630e;}.cls-8{fill:#014209;}.cls-9{fill:#002d05;}.cls-10{fill:#001902;}</style><radialGradient id="radial-gradient" cx="349" cy="350" r="250" gradientUnits="userSpaceOnUse"><stop offset="0"/><stop offset="0.35" stop-color="#04040a"/><stop offset="0.94" stop-color="#0d1025"/><stop offset="1" stop-color="#0e1128"/></radialGradient></defs><g id="Layer_1" data-name="Layer 1"><rect class="cls-1" width="700" height="700"/><circle class="cls-2" cx="349" cy="350" r="250"/><path class="cls-3" d="M187.76,309.52h5.6l4.31,23.58.75,5.3.93-5.3,5.91-23.58h4.07l5.87,23.58,1,5.81.92-5.81,4.1-23.58h5.61l-7.87,37h-5l-5.77-22.66-1-5.74-.92,5.74-5.71,22.66h-5Z"/><path class="cls-3" d="M245,345.85a16.18,16.18,0,0,1-5.59-3.73,16.84,16.84,0,0,1-3.62-5.67,19.16,19.16,0,0,1-1.3-7.14v-1.44a21.26,21.26,0,0,1,1.43-8,18.55,18.55,0,0,1,3.83-6,16.57,16.57,0,0,1,5.39-3.73,15.64,15.64,0,0,1,6.2-1.3,16.39,16.39,0,0,1,7,1.39,13.75,13.75,0,0,1,5,3.81,16.57,16.57,0,0,1,3,5.78,25.31,25.31,0,0,1,1,7.17v2.84H240.81v.24a16.34,16.34,0,0,0,1.08,4.75,11.66,11.66,0,0,0,2.31,3.62,10.75,10.75,0,0,0,3.62,2.64,11.35,11.35,0,0,0,4.68.95,12.9,12.9,0,0,0,6-1.36,13.1,13.1,0,0,0,4.37-3.63l3.86,3a16.34,16.34,0,0,1-5.52,5,17.53,17.53,0,0,1-9.07,2.17A18.7,18.7,0,0,1,245,345.85Zm2.72-31.12a9.76,9.76,0,0,0-3.08,2,12.23,12.23,0,0,0-2.31,3.34,16,16,0,0,0-1.31,4.52h19.89v-.3a11.86,11.86,0,0,0-.65-3.68,10.72,10.72,0,0,0-1.81-3.4,8.94,8.94,0,0,0-2.92-2.32,9.25,9.25,0,0,0-4.19-.89A9.38,9.38,0,0,0,247.72,314.73Z"/><path class="cls-3" d="M310.35,333.08a23.77,23.77,0,0,1-1,4.19,18.42,18.42,0,0,1-2.41,4.6,12.3,12.3,0,0,1-6.87,4.8,14.16,14.16,0,0,1-3.88.51,15.28,15.28,0,0,1-4.36-.58,11.85,11.85,0,0,1-3.53-1.67,13.67,13.67,0,0,1-1.44-1.2,12.78,12.78,0,0,1-1.3-1.43l-.31,4.2H279.4V294h6.33v19.48a12.23,12.23,0,0,1,3.79-3.18,12.62,12.62,0,0,1,3-1.09,15.9,15.9,0,0,1,3.55-.38,14.37,14.37,0,0,1,4.41.65,13.59,13.59,0,0,1,3.66,1.81,13,13,0,0,1,2.63,2.65,19.34,19.34,0,0,1,2.05,3.47,22.17,22.17,0,0,1,1.4,4.77,30.49,30.49,0,0,1,.48,5.52v.72A29.25,29.25,0,0,1,310.35,333.08Zm-6.18-8.78a19.9,19.9,0,0,0-.67-3.13,14.52,14.52,0,0,0-1.61-3.31,7.56,7.56,0,0,0-2.42-2.36,8.63,8.63,0,0,0-2.23-1,10.1,10.1,0,0,0-2.73-.34,9.91,9.91,0,0,0-3,.43,8.39,8.39,0,0,0-2.42,1.18,9.86,9.86,0,0,0-1.94,1.82,11.57,11.57,0,0,0-1.41,2.28v16.17a12.7,12.7,0,0,0,1.45,2.27,10.16,10.16,0,0,0,1.93,1.83,8.55,8.55,0,0,0,2.46,1.21,9.86,9.86,0,0,0,3,.43,9.62,9.62,0,0,0,2.87-.4,7.5,7.5,0,0,0,2.32-1.14,8.19,8.19,0,0,0,2.29-2.43,13.05,13.05,0,0,0,1.47-3.28,15.43,15.43,0,0,0,.65-2.94,24.26,24.26,0,0,0,.21-3.21v-.72A27.1,27.1,0,0,0,304.17,324.3Z"/><path class="cls-4" d="M328.4,317.11a50.21,50.21,0,0,1,2.07-8,43.42,43.42,0,0,1,3-6.7A39.5,39.5,0,0,1,337,297a30.8,30.8,0,0,1,3.73-4,21,21,0,0,1,3.58-2.63l1.34,4.17a18,18,0,0,0-2.21,2,27.47,27.47,0,0,0-2.17,2.59,36.21,36.21,0,0,0-3,5.21,38.82,38.82,0,0,0-2.39,6.55,49.43,49.43,0,0,0-1.43,7.08,61.69,61.69,0,0,0-.52,8.3v.48a62.79,62.79,0,0,0,.48,8,54.92,54.92,0,0,0,1.3,6.87,47.7,47.7,0,0,0,2,5.89,43.3,43.3,0,0,0,2.43,4.87,28.62,28.62,0,0,0,2.68,3.64,21.46,21.46,0,0,0,2.79,2.72l-1.34,3.86a21.23,21.23,0,0,1-3.6-2.61A28.54,28.54,0,0,1,337,355.9a39.57,39.57,0,0,1-3.58-5.38,41.48,41.48,0,0,1-2.95-6.72,49.42,49.42,0,0,1-2.07-8,52.68,52.68,0,0,1-.77-9.2v-.34A52.48,52.48,0,0,1,328.4,317.11Z"/><path class="cls-5" d="M363.23,320.1a17.9,17.9,0,0,1,3-6,13.59,13.59,0,0,1,4.65-3.89,13.14,13.14,0,0,1,6.12-1.41,14,14,0,0,1,5.79,1.12,12.14,12.14,0,0,1,4.29,3.22V294h6.32v52.5h-5.81l-.27-3.9A12,12,0,0,1,382.9,346a14.28,14.28,0,0,1-6,1.16,12.74,12.74,0,0,1-6.07-1.43,14,14,0,0,1-4.63-4,18.81,18.81,0,0,1-3-6,24.88,24.88,0,0,1-1.06-7.4v-.72A26.11,26.11,0,0,1,363.23,320.1Zm5.86,13.45a13.27,13.27,0,0,0,1.81,4.27,8.58,8.58,0,0,0,7.59,4,9,9,0,0,0,5.26-1.44,10.18,10.18,0,0,0,3.32-3.86V319.36a10.76,10.76,0,0,0-3.32-3.71,8.85,8.85,0,0,0-5.19-1.45,8.65,8.65,0,0,0-7.66,4,13.7,13.7,0,0,0-1.81,4.33,22,22,0,0,0-.58,5.14v.72A21.86,21.86,0,0,0,369.09,333.55Z"/><path class="cls-5" d="M415.34,345.85a16.18,16.18,0,0,1-5.59-3.73,17,17,0,0,1-3.63-5.67,19.36,19.36,0,0,1-1.29-7.14v-1.44a21.06,21.06,0,0,1,1.43-8,18.38,18.38,0,0,1,3.83-6,16.64,16.64,0,0,1,5.38-3.73,15.72,15.72,0,0,1,6.21-1.3,16.42,16.42,0,0,1,7,1.39,13.75,13.75,0,0,1,5,3.81,16.57,16.57,0,0,1,3,5.78,25.31,25.31,0,0,1,1,7.17v2.84H411.15v.24a16.34,16.34,0,0,0,1.08,4.75,11.46,11.46,0,0,0,2.3,3.62,10.79,10.79,0,0,0,3.63,2.64,11.35,11.35,0,0,0,4.68.95,12.86,12.86,0,0,0,6-1.36,13,13,0,0,0,4.38-3.63l3.86,3a16.34,16.34,0,0,1-5.52,5,17.53,17.53,0,0,1-9.07,2.17A18.7,18.7,0,0,1,415.34,345.85Zm2.71-31.12a9.72,9.72,0,0,0-3.07,2,12.23,12.23,0,0,0-2.31,3.34,15.65,15.65,0,0,0-1.32,4.52h19.9v-.3a11.86,11.86,0,0,0-.65-3.68,10.93,10.93,0,0,0-1.81-3.4,8.87,8.87,0,0,0-2.93-2.32,9.2,9.2,0,0,0-4.18-.89A9.43,9.43,0,0,0,418.05,314.73Z"/><path class="cls-5" d="M445.22,309.52h6.49l10.6,27.89.58,2.29.61-2.29,10.36-27.89h6.46l-15.07,37h-4.82Z"/><path class="cls-4" d="M512.13,335.84a51.6,51.6,0,0,1-2.07,8,44.31,44.31,0,0,1-3,6.72,42.49,42.49,0,0,1-3.54,5.38,29.9,29.9,0,0,1-3.78,4.05,21.23,21.23,0,0,1-3.6,2.61l-1.34-3.86a18.6,18.6,0,0,0,2.91-2.73,28.45,28.45,0,0,0,2.8-3.86,49.93,49.93,0,0,0,2.45-5,37.62,37.62,0,0,0,1.93-6.1,53.37,53.37,0,0,0,1.21-6.65,65.47,65.47,0,0,0,.43-7.64v-.48a56.09,56.09,0,0,0-.57-8.37,62.84,62.84,0,0,0-1.24-6.39,40.46,40.46,0,0,0-5.27-12,24.45,24.45,0,0,0-2.32-3.06,21.63,21.63,0,0,0-2.33-2.23l1.34-3.87a22.36,22.36,0,0,1,3.62,2.63,30.24,30.24,0,0,1,3.76,4,43.26,43.26,0,0,1,3.59,5.4,40.31,40.31,0,0,1,2.94,6.7,56.35,56.35,0,0,1,2,7.77,49.86,49.86,0,0,1,.8,9.42v.34A52.71,52.71,0,0,1,512.13,335.84Z"/><path class="cls-4" d="M255.82,444.28a11.92,11.92,0,0,1-3.8-3.58,16,16,0,0,1-2.19-4.75,18.89,18.89,0,0,1-.74-5.21V425.3c0-3.1-.74-5.34-2.21-6.74s-3.72-2.1-6.75-2.13v-4.67q4.55,0,6.75-2.08t2.21-6.75v-5.48a21.67,21.67,0,0,1,.69-5.33,14.66,14.66,0,0,1,2.21-4.88,11,11,0,0,1,3.7-3.37,11.74,11.74,0,0,1,5.55-1.4l.67,3.7a5.89,5.89,0,0,0-5.73,3.71,11.53,11.53,0,0,0-.91,3.61c-.12,1.33-.19,2.65-.19,4v5.48a12.71,12.71,0,0,1-1.79,6.78,11.08,11.08,0,0,1-5.52,4.44,10.87,10.87,0,0,1,5.51,4.39,13,13,0,0,1,1.8,6.76v5.44a25.23,25.23,0,0,0,.32,4,12.09,12.09,0,0,0,1.13,3.56,7.42,7.42,0,0,0,2.08,2.65,5.48,5.48,0,0,0,3.3,1.09l-.67,3.71A11.24,11.24,0,0,1,255.82,444.28Z"/><path class="cls-6" d="M291.94,429.23a9.2,9.2,0,0,0,2.72-1.45,7.14,7.14,0,0,0,1.92-2.15,5.48,5.48,0,0,0,.76-2.69H303a9.31,9.31,0,0,1-1.21,4.44,12.81,12.81,0,0,1-3.14,3.69,16.06,16.06,0,0,1-4.51,2.56,15.18,15.18,0,0,1-5.32.95,15.85,15.85,0,0,1-6.93-1.42,14.11,14.11,0,0,1-4.93-3.83,16.27,16.27,0,0,1-3-5.53,21.92,21.92,0,0,1-1-6.62v-1.36a21.89,21.89,0,0,1,1-6.6,16.5,16.5,0,0,1,3-5.58,14.15,14.15,0,0,1,4.93-3.8,15.85,15.85,0,0,1,6.93-1.42,16.07,16.07,0,0,1,5.69,1,14.52,14.52,0,0,1,4.49,2.66,12.19,12.19,0,0,1,2.93,4,11.76,11.76,0,0,1,1.07,5h-5.64a7.27,7.27,0,0,0-.69-3,8.19,8.19,0,0,0-1.79-2.46,8.4,8.4,0,0,0-2.69-1.68,9.17,9.17,0,0,0-3.37-.61,8.66,8.66,0,0,0-7.7,4,12.3,12.3,0,0,0-1.66,4,20,20,0,0,0-.5,4.48v1.36a20.27,20.27,0,0,0,.5,4.52,11.9,11.9,0,0,0,1.66,4,8.65,8.65,0,0,0,3,2.91,9.12,9.12,0,0,0,4.69,1.11A9.88,9.88,0,0,0,291.94,429.23Z"/><path class="cls-6" d="M331.31,384.43v44.35h11.38v5.15h-29.2v-5.15h11.86V389.62H313.49v-5.19Z"/><path class="cls-6" d="M375.71,429.13a12,12,0,0,1-10.38,5.45,13.73,13.73,0,0,1-5-.86,9.42,9.42,0,0,1-3.8-2.65,12.5,12.5,0,0,1-2.43-4.6,22.87,22.87,0,0,1-.86-6.68V399.06h6v20.79a20,20,0,0,0,.46,4.71,7.33,7.33,0,0,0,1.35,3,4.8,4.8,0,0,0,2.21,1.58,9.21,9.21,0,0,0,3,.45,12.37,12.37,0,0,0,3.58-.47,9,9,0,0,0,2.74-1.3,7.67,7.67,0,0,0,1.69-1.63,10.19,10.19,0,0,0,1.21-2.08v-25h6v34.87h-5.41Z"/><path class="cls-6" d="M425.67,421.29a22.26,22.26,0,0,1-1,3.94,17.35,17.35,0,0,1-2.27,4.34,12.54,12.54,0,0,1-3.37,3.17,12.41,12.41,0,0,1-3.11,1.35,13,13,0,0,1-3.66.49,14.34,14.34,0,0,1-4.11-.55,11.25,11.25,0,0,1-3.33-1.58,12.16,12.16,0,0,1-1.36-1.13,11.34,11.34,0,0,1-1.22-1.35l-.29,4h-5.48v-49.5h6V402.8a12.49,12.49,0,0,1,1.64-1.69,11.33,11.33,0,0,1,1.94-1.3,11.47,11.47,0,0,1,2.83-1,15.47,15.47,0,0,1,3.36-.35,13.38,13.38,0,0,1,4.15.61,12.64,12.64,0,0,1,3.45,1.71,12,12,0,0,1,2.48,2.5,18.69,18.69,0,0,1,1.94,3.27,20.88,20.88,0,0,1,1.32,4.49,29,29,0,0,1,.45,5.21v.68A27.34,27.34,0,0,1,425.67,421.29ZM419.84,413a19,19,0,0,0-.63-2.95,13.48,13.48,0,0,0-1.52-3.12,7,7,0,0,0-2.28-2.23,8.64,8.64,0,0,0-2.1-.9,9.8,9.8,0,0,0-2.58-.32,9.4,9.4,0,0,0-2.83.4,8.26,8.26,0,0,0-2.29,1.11,9.06,9.06,0,0,0-1.82,1.73,10.7,10.7,0,0,0-1.34,2.14V424.1a11.9,11.9,0,0,0,1.37,2.15,9.28,9.28,0,0,0,1.82,1.72,8,8,0,0,0,2.32,1.15,9.79,9.79,0,0,0,2.84.4,9.13,9.13,0,0,0,2.7-.37,7.4,7.4,0,0,0,2.2-1.08,7.88,7.88,0,0,0,2.16-2.29,12.41,12.41,0,0,0,1.38-3.09,15.59,15.59,0,0,0,.61-2.77,23.25,23.25,0,0,0,.2-3v-.68A24,24,0,0,0,419.84,413Z"/><path class="cls-4" d="M443.16,440.93a7.66,7.66,0,0,0,2.13-2.65,12.69,12.69,0,0,0,1.11-3.56,23.08,23.08,0,0,0,.34-4V425.3a14,14,0,0,1,.76-4.71,9.82,9.82,0,0,1,2.33-3.74,11.29,11.29,0,0,1,1.89-1.51,14.22,14.22,0,0,1,2.3-1.19,13.93,13.93,0,0,1-2.37-1.23,10.64,10.64,0,0,1-4.17-5.33,14.27,14.27,0,0,1-.74-4.66v-5.48a37.81,37.81,0,0,0-.21-4,12.41,12.41,0,0,0-.89-3.61,6.68,6.68,0,0,0-2.06-2.61,6.23,6.23,0,0,0-3.67-1.1l.64-3.7a11.73,11.73,0,0,1,5.37,1.32,11.29,11.29,0,0,1,3.69,3.19,14.74,14.74,0,0,1,2.37,5,21.78,21.78,0,0,1,.72,5.48v5.48a14.32,14.32,0,0,0,.37,3.4,7.8,7.8,0,0,0,1.11,2.53,6.07,6.07,0,0,0,2.95,2.21,13.24,13.24,0,0,0,4.53.69v4.67a14.51,14.51,0,0,0-4,.57,6.5,6.5,0,0,0-2.82,1.66,6.69,6.69,0,0,0-1.58,2.74,12.83,12.83,0,0,0-.52,3.9v5.44A19.63,19.63,0,0,1,452,436a15.42,15.42,0,0,1-2.19,4.78,12.64,12.64,0,0,1-3.8,3.55,10.77,10.77,0,0,1-5.45,1.45l-.67-3.71A5.49,5.49,0,0,0,443.16,440.93Z"/></g><g id="Layer_4" data-name="Layer 4"><path class="cls-7" d="M350,136.4l-.64-1.75-.62,1.75L344,150.49h-7l9.44-22.76h5.78l9.44,22.76h-6.95Z"/><path class="cls-7" d="M312.71,139.81l-.93-1.61-.31,1.83-2.18,14.7-6.87,1.21,5.35-24.05,5.69-1,13.25,20.77-6.84,1.21Z"/><path class="cls-7" d="M276.63,149.65l-1.21-1.42,0,1.85.4,14.85-6.55,2.38,1.09-24.61,5.43-2,16.65,18.16-6.52,2.37Z"/><path class="cls-7" d="M242.79,165.6l-1.43-1.19.34,1.82,3,14.55-6,3.49-3.21-24.43,5-2.89,19.55,15-6,3.47Z"/><path class="cls-7" d="M212.24,187.18l-1.61-.92.65,1.73,5.45,13.82-5.34,4.48L204,182.79l4.43-3.72,21.85,11.37L225,194.9Z"/><path class="cls-7" d="M185.91,213.74l-1.76-.63.95,1.6,7.77,12.66-4.48,5.34L177,210.85l3.72-4.43,23.5,7.4-4.47,5.32Z"/><path class="cls-7" d="M164.58,244.47l-1.83-.31,1.2,1.4,9.85,11.12-3.48,6-15-19.55,2.89-5,24.43,3.21-3.48,6Z"/><path class="cls-7" d="M148.92,278.44h-1.87l1.44,1.17,11.63,9.24-2.39,6.55-18.15-16.65,2-5.43,24.61-1.09-2.38,6.53Z"/><path class="cls-7" d="M139.39,314.61l-1.83.33,1.61.91,13.06,7.08L151,329.79l-20.77-13.24,1-5.7,24.05-5.34-1.21,6.84Z"/><path class="cls-7" d="M136.29,351.89l-1.75.64,1.75.62,14.09,4.7v7l-22.76-9.44V349.6l22.76-9.44v6.94Z"/><path class="cls-7" d="M139.7,389.13l-1.61.94,1.83.31,14.69,2.18,1.21,6.86-24-5.34-1-5.69,20.77-13.25,1.21,6.84Z"/><path class="cls-7" d="M149.54,425.22l-1.43,1.21,1.86,0,14.85-.4,2.38,6.55-24.61-1.09-2-5.43,18.16-16.65,2.37,6.52Z"/><path class="cls-7" d="M165.49,459.06l-1.19,1.43,1.82-.34,14.55-3,3.49,6-24.43,3.21-2.89-5,15-19.55,3.47,6Z"/><path class="cls-7" d="M187.07,489.61l-.92,1.61,1.73-.65,13.82-5.45,4.48,5.34-23.5,7.39L179,493.42l11.37-21.85,4.46,5.32Z"/><path class="cls-7" d="M213.63,515.94,213,517.7l1.6-1L227.26,509l5.34,4.48-21.86,11.37-4.43-3.72,7.4-23.5,5.32,4.47Z"/><path class="cls-7" d="M244.36,537.27l-.31,1.83,1.4-1.2,11.12-9.85,6,3.48-19.55,15-5-2.89,3.2-24.43,6,3.47Z"/><path class="cls-7" d="M278.33,552.93v1.86l1.17-1.43,9.24-11.63,6.55,2.39-16.65,18.15-5.43-2-1.09-24.61,6.53,2.38Z"/><path class="cls-7" d="M314.5,562.46l.33,1.83.91-1.61,7.08-13.06,6.86,1.21L316.44,571.6l-5.7-1-5.34-24.05,6.84,1.2Z"/><path class="cls-7" d="M351.78,565.56l.64,1.75.62-1.75,4.7-14.09h7l-9.44,22.76h-5.78l-9.44-22.76H347Z"/><path class="cls-7" d="M389,562.14l.94,1.62.31-1.83,2.18-14.7,6.86-1.21L394,570.07l-5.69,1L375,550.31l6.84-1.21Z"/><path class="cls-7" d="M425.11,552.31l1.21,1.42,0-1.85L425.9,537l6.55-2.38-1.09,24.61-5.43,2-16.65-18.16,6.52-2.37Z"/><path class="cls-7" d="M459,536.36l1.43,1.19-.34-1.82-3-14.55,6-3.49,3.21,24.43-5,2.89-19.55-15,6-3.47Z"/><path class="cls-7" d="M489.5,514.78l1.61.92-.65-1.73L485,500.15l5.34-4.48,7.39,23.5-4.43,3.71-21.85-11.36,5.32-4.46Z"/><path class="cls-7" d="M515.83,488.22l1.75.63-.94-1.6-7.77-12.66,4.48-5.34,11.37,21.86L521,495.54l-23.5-7.4,4.47-5.32Z"/><path class="cls-7" d="M537.16,457.49l1.83.31-1.2-1.41-9.85-11.11,3.48-6,15,19.55-2.89,5-24.43-3.21,3.47-6Z"/><path class="cls-7" d="M552.82,423.52h1.86l-1.43-1.17-11.63-9.25,2.38-6.54,18.16,16.65-2,5.43-24.61,1.09,2.38-6.53Z"/><path class="cls-7" d="M562.35,387.35l1.83-.33-1.61-.91L549.51,379l1.21-6.86,20.77,13.24-1,5.7-24,5.34,1.2-6.84Z"/><path class="cls-7" d="M565.45,350.07l1.75-.64-1.75-.62-14.09-4.7v-7l22.76,9.44v5.78l-22.76,9.44v-6.95Z"/><path class="cls-7" d="M562,312.82l1.61-.93-1.82-.31-14.7-2.18-1.21-6.86L570,307.88l1,5.69-20.77,13.25L549,320Z"/><path class="cls-7" d="M552.2,276.74l1.42-1.21-1.85,0-14.85.4-2.38-6.55,24.61,1.09,2,5.43L543,292.57l-2.37-6.52Z"/><path class="cls-7" d="M536.25,242.9l1.19-1.43-1.82.34-14.55,3-3.49-6L542,235.54l2.9,5-15,19.55-3.47-6Z"/><path class="cls-7" d="M514.67,212.35l.92-1.61-1.73.65L500,216.84l-4.48-5.34,23.5-7.39,3.71,4.43-11.36,21.85L507,225.07Z"/><path class="cls-7" d="M488.11,186l.63-1.76-1.6,1L474.48,193l-5.34-4.48L491,177.13l4.43,3.72-7.4,23.5-5.32-4.47Z"/><path class="cls-7" d="M457.37,164.69l.32-1.83-1.41,1.2-11.12,9.85-6-3.48,19.55-15,5,2.89-3.21,24.43-6-3.48Z"/><path class="cls-7" d="M423.41,149v-1.87l-1.18,1.44L413,160.23l-6.54-2.39,16.65-18.15,5.43,2,1.09,24.61-6.53-2.38Z"/><path class="cls-7" d="M387.24,139.5l-.33-1.83-.91,1.61-7.08,13.06-6.86-1.21,13.24-20.77,5.7,1,5.34,24-6.84-1.2Z"/><path class="cls-8" d="M375.52,108.37,375,106.3l-.89,1.94L367.2,123.9l-8-.73,13.2-25.1,6.62.61,8.4,27.08L379.5,125Z"/><path class="cls-8" d="M332.53,108.38l-.91-1.95-.54,2.07L327,125.11l-8,.67,8.65-27,6.62-.56,13,25.21-8,.67Z"/><path class="cls-8" d="M290.19,115.86,289,114.1l-.17,2.13-1.11,17.07-7.74,2,3.83-28.1,6.43-1.7,17.14,22.57-7.71,2Z"/><path class="cls-8" d="M249.79,130.59l-1.51-1.51.2,2.12,1.86,17-7.27,3.36L242,123.22l6-2.79,20.8,19.24L261.56,143Z"/><path class="cls-8" d="M212.56,152.13l-1.76-1.23.57,2.06,4.78,16.42L209.57,174l-6-27.72,5.46-3.79,23.82,15.32-6.56,4.56Z"/><path class="cls-8" d="M179.62,179.82l-1.94-.9.91,1.93,7.56,15.33-5.69,5.65-10.71-26.26,4.73-4.69,26.11,11-5.67,5.63Z"/><path class="cls-8" d="M152,212.82l-2.07-.56,1.23,1.75,10.1,13.78-4.62,6.56-15.09-24,3.83-5.44L173,211.16l-4.61,6.52Z"/><path class="cls-8" d="M130.47,250.13l-2.13-.19,1.52,1.5,12.33,11.82-3.41,7.25-19-21,2.84-6,28.28,1.34-3.41,7.23Z"/><path class="cls-8" d="M115.76,290.6l-2.13.19,1.75,1.21,14.2,9.49-2.11,7.74L105.1,291.87l1.75-6.43,28.08-3.6-2.1,7.71Z"/><path class="cls-8" d="M108.28,333l-2.06.55,1.93.9,15.63,6.87-.73,8L98,336.12l.61-6.63,27-8.43-.73,8Z"/><path class="cls-8" d="M108.27,376.09l-1.94.91,2.06.54,16.59,4,.66,8-27-8.66-.55-6.63,25.17-13,.66,8Z"/><path class="cls-8" d="M115.73,418.51,114,419.74l2.12.17,17,1.11,2,7.76-28-3.83-1.69-6.44L128,401.32l2,7.73Z"/><path class="cls-8" d="M130.42,459l-1.52,1.52,2.12-.2,17-1.87,3.35,7.28-28.28,1.11-2.79-6.05,19.21-20.84,3.34,7.26Z"/><path class="cls-8" d="M151.9,496.28,150.67,498l2.06-.56,16.38-4.8,4.57,6.59-27.67,6-3.79-5.47,15.31-23.87,4.55,6.57Z"/><path class="cls-8" d="M179.52,529.28l-.9,1.94,1.92-.91,15.31-7.58,5.64,5.7-26.21,10.73-4.68-4.73,10.94-26.16,5.62,5.67Z"/><path class="cls-8" d="M212.45,557l-.56,2.07,1.74-1.23,13.76-10.13,6.54,4.63-24,15.13-5.43-3.84,6.24-27.67,6.52,4.61Z"/><path class="cls-8" d="M249.67,578.49l-.19,2.14,1.5-1.52,11.8-12.36,7.24,3.42-21,19.07-6-2.84,1.35-28.34,7.22,3.41Z"/><path class="cls-8" d="M290.06,593.22l.19,2.14,1.21-1.76,9.48-14.23,7.72,2.11-17.34,22.43-6.42-1.75L281.32,574l7.7,2.1Z"/><path class="cls-8" d="M332.4,600.7l.55,2.07.89-1.94,6.87-15.66,8,.73L335.48,611l-6.62-.61-8.4-27.08,8,.73Z"/><path class="cls-8" d="M375.38,600.69l.91,1.95.54-2.07L380.88,584l8-.66-8.65,27-6.62.55-13-25.2,7.95-.67Z"/><path class="cls-8" d="M417.72,593.21,419,595l.17-2.13,1.11-17.07,7.74-2-3.83,28.1-6.43,1.7L400.57,581l7.71-2Z"/><path class="cls-8" d="M458.12,578.47l1.51,1.52-.2-2.12-1.86-17,7.27-3.36,1.1,28.35-6,2.79L439.1,569.4l7.25-3.35Z"/><path class="cls-8" d="M495.35,556.93l1.76,1.24-.57-2.06-4.78-16.42,6.58-4.58,6,27.72-5.46,3.8L475.05,551.3l6.56-4.55Z"/><path class="cls-8" d="M528.29,529.24l1.94.91-.91-1.93-7.56-15.33,5.69-5.65,10.71,26.25-4.73,4.69-26.11-10.95L513,521.6Z"/><path class="cls-8" d="M555.93,496.25l2.07.55-1.23-1.74-10.1-13.78,4.62-6.56,15.09,24-3.83,5.44-27.62-6.24,4.61-6.53Z"/><path class="cls-8" d="M577.44,458.94l2.13.19-1.52-1.5-12.33-11.82,3.41-7.26,19,21-2.84,6L557,464.24l3.41-7.23Z"/><path class="cls-8" d="M592.15,418.47l2.13-.19-1.75-1.21-14.2-9.5,2.11-7.74,22.37,17.37-1.75,6.43L573,427.23l2.1-7.72Z"/><path class="cls-8" d="M599.63,376.05l2.06-.56-1.93-.89-15.63-6.87.73-8,25,13.21-.61,6.63-27,8.43.73-8Z"/><path class="cls-8" d="M599.64,333l1.94-.9-2.06-.54-16.59-4-.66-8,27,8.65.55,6.64-25.17,13-.65-8Z"/><path class="cls-8" d="M592.18,290.56l1.76-1.23-2.12-.18-17-1.1-2-7.76,28,3.83,1.69,6.44L580,307.75l-2-7.73Z"/><path class="cls-8" d="M577.49,250.08l1.52-1.51-2.12.2-17,1.87-3.35-7.28,28.28-1.11,2.79,6.05-19.21,20.84-3.34-7.26Z"/><path class="cls-8" d="M556,212.78l1.23-1.75-2.06.56-16.38,4.8-4.57-6.59,27.67-6,3.79,5.47-15.31,23.86-4.55-6.56Z"/><path class="cls-8" d="M528.39,179.79l.9-1.94-1.92.91-15.31,7.58-5.64-5.7,26.21-10.73,4.68,4.73L526.37,200.8l-5.62-5.68Z"/><path class="cls-8" d="M495.46,152.11,496,150l-1.74,1.23L480.52,161.4,474,156.77l23.95-15.14,5.43,3.85-6.24,27.67-6.52-4.61Z"/><path class="cls-8" d="M458.24,130.57l.19-2.13-1.5,1.52-11.8,12.36-7.24-3.42,21-19.07,6,2.84L463.52,151l-7.22-3.41Z"/><path class="cls-8" d="M417.85,115.85l-.19-2.14-1.21,1.76L407,129.7l-7.72-2.11,17.34-22.43,6.42,1.75,3.58,28.14-7.7-2.1Z"/><path class="cls-9" d="M306.45,76.39l-1.2-2.14-.43,2.41L301.71,96l-9,1.49,7.41-31.63,7.5-1.23,17,27.6-9,1.48Z"/><path class="cls-9" d="M258.94,88.78l-1.56-1.89v2.44l.27,19.59L249,112l1.83-32.44L258,77l21.54,24.21-8.6,3Z"/><path class="cls-9" d="M214.28,109.28l-1.86-1.6.42,2.41,3.65,19.25-8,4.49-3.8-32.26,6.62-3.73,25.4,20.08-8,4.48Z"/><path class="cls-9" d="M173.84,137.26,171.73,136l.83,2.3,6.92,18.31-7.08,5.82-9.31-31.11L169,126.5l28.49,15.34-7,5.8Z"/><path class="cls-9" d="M138.84,171.86l-2.29-.86,1.21,2.12,10,16.82-6,7-14.54-29,5-5.79,30.7,10.14-5.94,6.94Z"/><path class="cls-9" d="M110.34,212.05l-2.4-.45,1.56,1.88,12.74,14.82-4.68,7.9-19.33-26,3.87-6.56,32,4.62-4.66,7.87Z"/><path class="cls-9" d="M89.22,256.6l-2.44,0,1.86,1.58,15.1,12.37-3.23,8.6L77,256.87l2.68-7.14,32.31-1-3.22,8.56Z"/><path class="cls-9" d="M76.12,304.15l-2.41.4,2.1,1.23,17,9.55-1.7,9-27-17.8,1.42-7.5,31.64-6.66-1.7,9Z"/><path class="cls-9" d="M71.43,353.26l-2.31.82,2.29.84,18.4,6.43-.11,9.19L60,357.73l.1-7.63,30-12.08L90,347.18Z"/><path class="cls-9" d="M75.29,402.44l-2.13,1.21,2.4.43L94.8,407.2l1.47,9.07-31.46-7.43-1.22-7.53,27.47-17.14,1.47,9Z"/><path class="cls-9" d="M87.59,450.19l-1.88,1.56h2.43l19.49-.29,3,8.68-32.28-1.83-2.5-7.2L100,429.45l3,8.65Z"/><path class="cls-9" d="M108,495.07l-1.59,1.87,2.4-.42,19.14-3.69,4.47,8-32.1,3.83L96.57,498l20-25.54,4.46,8Z"/><path class="cls-9" d="M135.77,535.7l-1.24,2.12,2.29-.83L155,530l5.78,7.11-30.95,9.38-4.8-5.9L140.34,512l5.77,7.08Z"/><path class="cls-9" d="M170.18,570.86l-.86,2.3,2.11-1.21,16.75-10.05,6.92,6-28.86,14.63-5.75-5,10.1-30.87,6.9,6Z"/><path class="cls-9" d="M210.15,599.48l-.45,2.41,1.87-1.56,14.75-12.81,7.86,4.69-25.9,19.45-6.52-3.89,4.61-32.16,7.83,4.67Z"/><path class="cls-9" d="M254.46,620.68l0,2.46,1.57-1.87,12.32-15.19,8.55,3.25L254.72,633l-7.1-2.69-1-32.48,8.52,3.24Z"/><path class="cls-9" d="M301.76,633.83l.4,2.42,1.22-2.11L312.89,617l9,1.7-17.72,27.18-7.46-1.41-6.61-31.8,8.95,1.7Z"/><path class="cls-9" d="M350.62,638.52l.81,2.31.84-2.29L358.68,620l9.14.11L355.06,650l-7.59-.09-12-30.16,9.11.11Z"/><path class="cls-9" d="M399.55,634.61l1.2,2.14.43-2.41L404.29,615l9-1.49-7.41,31.63-7.5,1.23-17-27.6,9-1.48Z"/><path class="cls-9" d="M447.06,622.22l1.56,1.89v-2.44l-.27-19.59,8.63-3-1.83,32.44L448,634l-21.54-24.21,8.6-3Z"/><path class="cls-9" d="M491.72,601.72l1.86,1.6-.42-2.41-3.65-19.25,8-4.49,3.8,32.26-6.62,3.73-25.4-20.08,7.95-4.48Z"/><path class="cls-9" d="M532.16,573.74l2.11,1.25-.83-2.3-6.92-18.31,7.08-5.82,9.31,31.11L537,584.5l-28.49-15.34,7.05-5.8Z"/><path class="cls-9" d="M567.16,539.14l2.29.86-1.21-2.12-10-16.82,6-7,14.54,29-4.95,5.79-30.7-10.14,5.94-6.94Z"/><path class="cls-9" d="M595.66,499l2.4.45-1.56-1.88L583.76,482.7l4.68-7.9,19.33,26-3.87,6.56-32-4.62,4.66-7.87Z"/><path class="cls-9" d="M616.78,454.4l2.44,0-1.86-1.58-15.1-12.37,3.23-8.6L629,454.13l-2.68,7.14-32.31,1,3.22-8.56Z"/><path class="cls-9" d="M629.88,406.85l2.41-.4-2.1-1.23-17-9.55,1.7-9,27,17.8-1.42,7.5-31.64,6.66,1.7-9Z"/><path class="cls-9" d="M634.57,357.74l2.31-.82-2.29-.84-18.4-6.43.11-9.19L646,353.27l-.1,7.63-30,12.08.12-9.16Z"/><path class="cls-9" d="M630.71,308.56l2.13-1.21-2.4-.43L611.2,303.8l-1.47-9.07,31.46,7.43,1.22,7.53-27.47,17.14-1.47-9Z"/><path class="cls-9" d="M618.41,260.81l1.88-1.56h-2.43l-19.49.29-3-8.68,32.28,1.83,2.5,7.2L606,281.55l-3-8.65Z"/><path class="cls-9" d="M598,215.93l1.59-1.87-2.4.42-19.14,3.69-4.47-8,32.1-3.83,3.71,6.65-20,25.54-4.46-8Z"/><path class="cls-9" d="M570.23,175.3l1.24-2.12-2.29.83L551,181l-5.78-7.11,31-9.38,4.8,5.9L565.66,199,559.89,192Z"/><path class="cls-9" d="M535.82,140.14l.86-2.3-2.11,1.21-16.75,10-6.92-6,28.86-14.63,5.75,5-10.1,30.87-6.9-6Z"/><path class="cls-9" d="M495.85,111.52l.45-2.41-1.87,1.56-14.75,12.81-7.86-4.69,25.9-19.45,6.52,3.89-4.61,32.16-7.83-4.67Z"/><path class="cls-9" d="M451.54,90.32l0-2.46L450,89.73l-12.32,15.19-8.55-3.25L451.28,78l7.1,2.69,1,32.48-8.52-3.24Z"/><path class="cls-9" d="M404.24,77.17l-.4-2.42-1.22,2.11L393.11,94l-9-1.7,17.72-27.18,7.46,1.41,6.61,31.8L407,96.6Z"/><path class="cls-9" d="M355.38,72.48l-.81-2.31-.84,2.29L347.32,91l-9.14-.11L350.94,61l7.59.09,12,30.16-9.11-.11Z"/><path class="cls-10" d="M267.08,39.32,265.46,37l-.22,2.81-1.39,22.56-10.19,2.72L258.59,28l8.47-2.27,22.66,29.77-10.15,2.72Z"/><path class="cls-10" d="M213.93,58.9l-2-2,.27,2.81,2.52,22.46-9.56,4.46-1.55-37.45,7.94-3.7L239,70.84l-9.53,4.45Z"/><path class="cls-10" d="M165,87.47l-2.31-1.62.75,2.72,6.36,21.68-8.65,6.06-8-36.61,7.19-5,31.42,20.19-8.62,6Z"/><path class="cls-10" d="M121.69,124.15l-2.55-1.2,1.2,2.55,10,20.24-7.47,7.48-14.2-34.66,6.2-6.21,34.43,14.4-7.44,7.45Z"/><path class="cls-10" d="M85.42,167.83l-2.73-.73,1.63,2.3,13.36,18.18-6.07,8.67-20-31.65,5-7.2,36.39,8.17-6,8.64Z"/><path class="cls-10" d="M57.24,217.18l-2.81-.24,2,2,16.29,15.58-4.47,9.6L43.11,216.4l3.72-8,37.25,1.7-4.46,9.56Z"/><path class="cls-10" d="M38,270.7l-2.81.25,2.31,1.6,18.74,12.5-2.75,10.24L24,272.4l2.28-8.5,37-4.83-2.74,10.2Z"/><path class="cls-10" d="M28.33,326.77l-2.72.74,2.55,1.17,20.62,9-.94,10.56-33-17.39.78-8.76,35.57-11.22-.93,10.52Z"/><path class="cls-10" d="M28.49,383.68l-2.56,1.2,2.72.71,21.86,5.31.9,10.56L15.87,390.11l-.75-8.77,33.09-17.26.9,10.53Z"/><path class="cls-10" d="M38.47,439.71l-2.31,1.63,2.8.22L61.4,443l2.71,10.25-36.95-5-2.26-8.51L54.51,417l2.7,10.21Z"/><path class="cls-10" d="M58,493.14l-2,2,2.79-.27,22.34-2.52L85.57,502l-37.26,1.55-3.69-8,25.22-27.59,4.43,9.58Z"/><path class="cls-10" d="M86.42,542.37l-1.61,2.32,2.7-.75,21.57-6.39,6,8.7-36.42,8-5-7.22,20.07-31.58,6,8.67Z"/><path class="cls-10" d="M122.93,585.88l-1.19,2.57,2.54-1.21,20.13-10.06,7.45,7.52L117.38,599l-6.18-6.24,14.3-34.6,7.42,7.48Z"/><path class="cls-10" d="M166.4,622.37l-.72,2.74,2.28-1.64,18.09-13.42,8.63,6.1-31.49,20.06L156,631.15l8.11-36.58,8.6,6.08Z"/><path class="cls-10" d="M215.51,650.71l-.24,2.83,2-2,15.49-16.38,9.56,4.5-27.54,25.26-7.93-3.74,1.66-37.44,9.52,4.48Z"/><path class="cls-10" d="M268.77,670.06l.25,2.82,1.59-2.32L283,651.73l10.19,2.76-22.76,29.68L262,681.88l-4.82-37.17,10.14,2.76Z"/><path class="cls-10" d="M324.56,679.82l.73,2.73,1.17-2.56,9-20.72,10.51,1-17.28,33.2-8.72-.78-11.18-35.77,10.47,1Z"/><path class="cls-10" d="M381.18,679.69l1.2,2.57.7-2.73,5.27-22,10.51-.91-11.28,35.72-8.73.75-17.18-33.27,10.47-.9Z"/><path class="cls-10" d="M436.92,669.68l1.62,2.32.22-2.81,1.39-22.56,10.19-2.72-4.93,37.14-8.47,2.27-22.66-29.77,10.15-2.72Z"/><path class="cls-10" d="M490.07,650.1l2,2-.27-2.81-2.52-22.46,9.56-4.46,1.55,37.45-7.94,3.7L465,638.16l9.53-4.45Z"/><path class="cls-10" d="M539,621.53l2.31,1.62-.75-2.72-6.36-21.68,8.65-6.06,8,36.61-7.19,5-31.42-20.19,8.62-6Z"/><path class="cls-10" d="M582.31,584.85l2.55,1.2-1.2-2.55-10-20.24,7.47-7.48,14.2,34.66-6.2,6.21-34.43-14.4,7.44-7.45Z"/><path class="cls-10" d="M618.58,541.17l2.73.73-1.63-2.3-13.36-18.18,6.07-8.67,20,31.65-5,7.2-36.39-8.17,6-8.64Z"/><path class="cls-10" d="M646.76,491.82l2.81.24-2-2-16.29-15.58,4.47-9.6,25.14,27.69-3.72,8-37.25-1.7,4.46-9.56Z"/><path class="cls-10" d="M666,438.3l2.81-.25-2.31-1.6L647.74,424l2.75-10.24L680,436.6l-2.28,8.5-37,4.83,2.74-10.2Z"/><path class="cls-10" d="M675.67,382.23l2.72-.74-2.55-1.17-20.62-9,.94-10.56,33,17.39-.78,8.76-35.57,11.22.93-10.52Z"/><path class="cls-10" d="M675.51,325.32l2.56-1.2-2.72-.71-21.86-5.31-.9-10.56,35.54,11.35.75,8.77-33.09,17.26-.9-10.53Z"/><path class="cls-10" d="M665.53,269.29l2.31-1.63-2.8-.22L642.6,266l-2.71-10.25,37,5,2.26,8.51L649.49,292l-2.7-10.21Z"/><path class="cls-10" d="M646,215.86l2-2-2.79.27-22.34,2.52L618.43,207l37.26-1.55,3.69,8-25.22,27.59-4.43-9.58Z"/><path class="cls-10" d="M617.58,166.63l1.61-2.32-2.7.75-21.57,6.39-6-8.7,36.42-8,5,7.22-20.07,31.58-6-8.67Z"/><path class="cls-10" d="M581.07,123.12l1.19-2.57-2.54,1.21-20.13,10.06-7.45-7.52L586.62,110l6.18,6.24-14.3,34.6-7.42-7.48Z"/><path class="cls-10" d="M537.6,86.63l.72-2.74L536,85.53,518,99l-8.63-6.1,31.49-20.06L548,77.85l-8.11,36.58-8.6-6.08Z"/><path class="cls-10" d="M488.49,58.29l.24-2.83-2,2L471.27,73.85l-9.56-4.5,27.54-25.26,7.93,3.74-1.66,37.44L486,80.79Z"/><path class="cls-10" d="M435.23,38.94,435,36.12l-1.59,2.32L421,57.27l-10.19-2.76,22.76-29.68L442,27.12l4.82,37.17-10.14-2.76Z"/><path class="cls-10" d="M379.44,29.18l-.73-2.73L377.54,29l-9,20.72-10.51-.95,17.28-33.2,8.72.78,11.18,35.77-10.47-1Z"/><path class="cls-10" d="M322.82,29.31l-1.2-2.57-.7,2.73-5.27,22-10.51.91,11.28-35.72,8.73-.75,17.18,33.27-10.47.9Z"/></g></svg>